<svg width="34" height="40" viewBox="0 0 34 40" fill="none" xmlns="http://www.w3.org/2000/svg">
<g clip-path="url(#clip0_8509_4301)">
<path d="M17 0L0 5.66048L0.000974769 29.5856L17 23.9373V0Z" fill="black"/>
<path fill-rule="evenodd" clip-rule="evenodd" d="M33.2948 6.1829L17.7052 0.992044V23.4142L33.2934 28.5939L33.2948 6.1829ZM33.9985 29.5854L34 5.66029L17 -0.000183105V23.9371L33.9985 29.5854Z" fill="black"/>
<path d="M25.9262 11.049L25.7615 10.976C25.5592 11.3397 25.316 11.641 25.0304 11.8799C24.7097 12.1669 24.349 12.4084 23.9484 12.6047C23.5492 12.8004 23.1798 12.9262 22.8406 12.9846V11.3929C23.5019 11.2489 24.0961 10.9552 24.6249 10.5114C25.1527 10.0661 25.5543 9.5761 25.8302 9.0415L27.4147 9.5685V20.5212L25.7888 19.981V12.0528C25.7888 11.6983 25.8341 11.3645 25.9262 11.049Z" fill="black"/>
<path d="M0 39.9058V32.7783H4.42527V33.5531H0.825414V35.9455H4.00282V36.7112H0.825414V39.9058H0Z" fill="black"/>
<path d="M5.50209 39.904V34.9924L6.26513 34.7363V39.904H5.50209Z" fill="black"/>
<path d="M7.71955 34.7403H8.48308V35.0765C8.48308 35.1647 8.47577 35.2372 8.46067 35.297C8.44556 35.3554 8.41681 35.4137 8.37442 35.4695L8.50062 35.5526C8.72768 35.2296 8.95231 34.9974 9.17401 34.8569C9.39522 34.7169 9.65591 34.647 9.95508 34.647C10.6548 34.647 11.1425 34.9178 11.4183 35.4593C11.5206 35.6657 11.584 35.8761 11.6118 36.0901C11.6376 36.3056 11.6517 36.5404 11.6517 36.7965V39.9064H10.8882V36.7965C10.8882 36.2473 10.7932 35.8619 10.6012 35.6373C10.4341 35.4451 10.1797 35.3478 9.83765 35.3478C9.461 35.3478 9.15939 35.476 8.93233 35.7306C8.77007 35.906 8.65508 36.1449 8.5854 36.4496C8.5167 36.7549 8.48308 37.1727 8.48308 37.7026V39.9064H7.71955V34.7403Z" fill="black"/>
<path d="M15.3588 39.1225C15.6516 38.9668 15.8675 38.7579 16.0064 38.4967C16.1072 38.3101 16.1745 38.1321 16.2081 37.9633C16.2407 37.7959 16.2592 37.6935 16.2656 37.656C16.2841 37.5622 16.308 37.4937 16.3377 37.4491C16.3679 37.4065 16.4127 37.3817 16.4727 37.3751L16.4454 37.226L15.2877 37.478L14.6503 37.6088C14.2785 37.6829 14.0067 37.8051 13.8332 37.9724C13.6958 38.1164 13.6261 38.2969 13.6261 38.515C13.6261 38.7513 13.7124 38.9419 13.8829 39.0849C14.0529 39.2279 14.2824 39.2989 14.5689 39.2989C14.8559 39.2989 15.1191 39.2406 15.3588 39.1225ZM13.2992 39.6082C13.0088 39.3461 12.864 38.9891 12.864 38.5332C12.864 38.0855 13.0248 37.73 13.3479 37.4689C13.611 37.2508 13.9915 37.0886 14.4881 36.9836L16.2568 36.6276C16.2631 36.2291 16.1608 35.9213 15.9513 35.7032C15.7242 35.4659 15.4187 35.3478 15.0357 35.3478C14.7312 35.3478 14.4657 35.4335 14.241 35.6048C14.0164 35.7762 13.8741 36.0044 13.8147 36.2914H13.0521C13.1359 35.7747 13.364 35.3711 13.7382 35.0815C14.1124 34.792 14.548 34.647 15.0455 34.647C15.3388 34.647 15.6107 34.6921 15.8616 34.7829C16.1136 34.8726 16.3255 35.005 16.499 35.1804C16.727 35.4035 16.8708 35.6616 16.9302 35.9552C16.9901 36.2473 17.0203 36.5495 17.0203 36.8614V39.9064H16.2568V39.664C16.2568 39.5083 16.287 39.3304 16.3465 39.1316L16.2208 39.0758C16.06 39.3435 15.8714 39.5525 15.6555 39.7015C15.5059 39.808 15.3364 39.8831 15.1478 39.9302C14.9597 39.9769 14.7361 40.0002 14.4793 40.0002C13.9828 40.0002 13.5886 39.8689 13.2992 39.6082Z" fill="black"/>
<path d="M18.4199 34.7403H19.1834V35.0765C19.1834 35.1647 19.1756 35.2372 19.161 35.297C19.1459 35.3554 19.1172 35.4137 19.0762 35.4695L19.202 35.5526C19.429 35.2296 19.6536 34.9974 19.8744 34.8569C20.0966 34.7169 20.3558 34.647 20.6554 34.647C21.3561 34.647 21.8439 34.9178 22.1196 35.4593C22.2205 35.6657 22.2858 35.8761 22.3116 36.0901C22.3394 36.3056 22.353 36.5404 22.353 36.7965V39.9064H21.5895V36.7965C21.5895 36.2473 21.4935 35.8619 21.3025 35.6373C21.1344 35.4451 20.8796 35.3478 20.5395 35.3478C20.1623 35.3478 19.8593 35.476 19.6322 35.7306C19.4704 35.906 19.3554 36.1449 19.2867 36.4496C19.2185 36.7549 19.1834 37.1727 19.1834 37.7026V39.9064H18.4199V34.7403Z" fill="black"/>
<path d="M24.7227 39.6549C24.3572 39.4237 24.0727 39.1032 23.8695 38.693C23.6658 38.2817 23.564 37.8182 23.564 37.3C23.564 36.7965 23.6658 36.3406 23.8695 35.937C24.0727 35.5318 24.3572 35.2154 24.7227 34.9882C25.0867 34.7611 25.5033 34.647 25.9701 34.647C26.5265 34.647 26.9977 34.7945 27.3846 35.0907C27.77 35.3868 28.0195 35.7864 28.133 36.2914H27.3173C27.2208 36.0044 27.0513 35.7762 26.8096 35.6048C26.5674 35.4335 26.2868 35.3478 25.9701 35.3478C25.6582 35.3478 25.3785 35.4319 25.1305 35.5993C24.882 35.7681 24.6866 36.0009 24.5429 36.2965C24.3996 36.5926 24.327 36.9263 24.327 37.3C24.327 37.6869 24.3972 38.0307 24.538 38.3334C24.6788 38.6346 24.8747 38.872 25.1256 39.0423C25.3775 39.2147 25.6582 39.2989 25.9701 39.2989C26.3106 39.2989 26.6059 39.2031 26.8544 39.0099C27.1024 38.8177 27.2686 38.5616 27.3519 38.2437H28.169C28.0619 38.7918 27.8085 39.2213 27.4109 39.5327C27.0128 39.8445 26.5323 40.0002 25.9701 40.0002C25.5033 40.0002 25.0867 39.8846 24.7227 39.6549Z" fill="black"/>
<path d="M30.1662 36.8198C30.2359 36.7909 30.3207 36.7767 30.423 36.7767H32.6483C32.7619 36.7767 32.8579 36.7909 32.9363 36.8198C33.0138 36.8472 33.0888 36.8923 33.1609 36.9547L33.2594 36.8431C33.1999 36.799 33.1624 36.76 33.1473 36.726C33.1322 36.6915 33.1185 36.6469 33.1064 36.5901C33.0888 36.4785 33.0586 36.3721 33.0162 36.2732C32.8915 35.9796 32.698 35.7524 32.4374 35.5901C32.1781 35.4294 31.8863 35.3478 31.5632 35.3478C31.2338 35.3478 30.9444 35.4294 30.6964 35.5901C30.4479 35.7524 30.2544 35.9796 30.1175 36.2732C30.0639 36.3913 30.0303 36.4968 30.0191 36.5901C30.0128 36.6469 30.0001 36.69 29.9826 36.7209C29.964 36.7524 29.9255 36.7924 29.8656 36.8431L29.964 36.9547C30.0303 36.8923 30.0975 36.8472 30.1662 36.8198ZM30.311 39.6549C29.9426 39.4237 29.6561 39.1072 29.4524 38.7021C29.2492 38.2969 29.1484 37.8426 29.1484 37.3375C29.1484 36.8589 29.2429 36.4147 29.4349 36.0059C29.6259 35.5983 29.9026 35.2697 30.2657 35.0207C30.6277 34.7712 31.054 34.647 31.5442 34.647C31.9696 34.647 32.3638 34.7464 32.7292 34.9467C33.0951 35.1449 33.388 35.436 33.6087 35.8204C33.8309 36.2032 33.942 36.6626 33.942 37.1976V37.478H30.3957C30.3534 37.478 30.271 37.478 30.1487 37.478C30.0264 37.478 29.9143 37.4714 29.812 37.4597L29.7857 37.6088C29.8393 37.6205 29.8768 37.6413 29.8978 37.6702C29.9177 37.6976 29.9368 37.7442 29.9514 37.8101C29.9665 37.875 29.9826 37.9359 30.0001 37.9917C30.1263 38.3902 30.328 38.7087 30.6062 38.945C30.8845 39.1813 31.2002 39.2989 31.553 39.2989C31.9126 39.2989 32.2205 39.2005 32.4788 39.0008C32.7356 38.802 32.9217 38.5489 33.0352 38.2437H33.8519C33.6901 38.767 33.4143 39.1914 33.0264 39.5149C32.6371 39.8379 32.1494 40.0002 31.5632 40.0002C31.0954 40.0002 30.6788 39.8846 30.311 39.6549Z" fill="black"/>
<path d="M6.26518 32.6071L5.51821 32.8551V33.9062L6.26518 33.6583V32.6071Z" fill="black"/>
<path fill-rule="evenodd" clip-rule="evenodd" d="M5.51859 33.9077L6.26917 33.6586H6.26641V32.6113L6.26479 32.6062L5.51422 32.8553H5.51698V33.9026L5.51859 33.9077ZM6.26394 32.6091V33.6576L5.51944 33.9048V32.8563L6.26394 32.6091Z" fill="black"/>
<path d="M6.26518 32.6064L5.51821 32.8544V33.9056L6.26518 33.6576V32.6064Z" fill="black"/>
</g>
<defs>
<clipPath id="clip0_8509_4301">
<rect width="34" height="40" fill="white"/>
</clipPath>
</defs>
</svg>
