<svg width="21" height="20" viewBox="0 0 21 20" fill="none" xmlns="http://www.w3.org/2000/svg">
<path d="M15.5417 2.52484H15.4084V2.2915C15.4084 1.94984 15.125 1.6665 14.7834 1.6665C14.4417 1.6665 14.1584 1.94984 14.1584 2.2915V2.52484H6.84169V2.2915C6.84169 1.94984 6.56669 1.6665 6.21669 1.6665C5.87502 1.6665 5.59169 1.94984 5.59169 2.2915V2.52484H5.45835C3.64169 2.52484 2.16669 3.99983 2.16669 5.8165V15.0415C2.16669 16.8582 3.64169 18.3332 5.45835 18.3332H15.5417C17.3584 18.3332 18.8334 16.8582 18.8334 15.0415V5.8165C18.8334 3.99983 17.3584 2.52484 15.5417 2.52484ZM5.50002 15.8082C5.04169 15.8082 4.66669 15.4415 4.66669 14.9748C4.66669 14.5165 5.04169 14.1415 5.50002 14.1415C5.95835 14.1415 6.33335 14.5165 6.33335 14.9748C6.33335 15.4415 5.95835 15.8082 5.50002 15.8082ZM5.50002 12.9082C5.04169 12.9082 4.66669 12.5332 4.66669 12.0748C4.66669 11.6082 5.04169 11.2415 5.50002 11.2415C5.95835 11.2415 6.33335 11.6082 6.33335 12.0748C6.33335 12.5332 5.95835 12.9082 5.50002 12.9082ZM5.50002 9.99984C5.04169 9.99984 4.66669 9.62484 4.66669 9.1665C4.66669 8.70817 5.04169 8.33317 5.50002 8.33317C5.95835 8.33317 6.33335 8.70817 6.33335 9.1665C6.33335 9.62484 5.95835 9.99984 5.50002 9.99984ZM8.83335 15.8082C8.37502 15.8082 8.00002 15.4415 8.00002 14.9748C8.00002 14.5165 8.37502 14.1415 8.83335 14.1415C9.29169 14.1415 9.66669 14.5165 9.66669 14.9748C9.66669 15.4415 9.29169 15.8082 8.83335 15.8082ZM8.83335 12.9082C8.37502 12.9082 8.00002 12.5332 8.00002 12.0748C8.00002 11.6082 8.37502 11.2415 8.83335 11.2415C9.29169 11.2415 9.66669 11.6082 9.66669 12.0748C9.66669 12.5332 9.29169 12.9082 8.83335 12.9082ZM8.83335 9.99984C8.37502 9.99984 8.00002 9.62484 8.00002 9.1665C8.00002 8.70817 8.37502 8.33317 8.83335 8.33317C9.29169 8.33317 9.66669 8.70817 9.66669 9.1665C9.66669 9.62484 9.29169 9.99984 8.83335 9.99984ZM12.1667 15.8082C11.7084 15.8082 11.3334 15.4415 11.3334 14.9748C11.3334 14.5165 11.7084 14.1415 12.1667 14.1415C12.625 14.1415 13 14.5165 13 14.9748C13 15.4415 12.625 15.8082 12.1667 15.8082ZM12.1667 12.9082C11.7084 12.9082 11.3334 12.5332 11.3334 12.0748C11.3334 11.6082 11.7084 11.2415 12.1667 11.2415C12.625 11.2415 13 11.6082 13 12.0748C13 12.5332 12.625 12.9082 12.1667 12.9082ZM12.1667 9.99984C11.7084 9.99984 11.3334 9.62484 11.3334 9.1665C11.3334 8.70817 11.7084 8.33317 12.1667 8.33317C12.625 8.33317 13 8.70817 13 9.1665C13 9.62484 12.625 9.99984 12.1667 9.99984ZM15.5 12.9082C15.0417 12.9082 14.6667 12.5332 14.6667 12.0748C14.6667 11.6082 15.0417 11.2415 15.5 11.2415C15.9584 11.2415 16.3334 11.6082 16.3334 12.0748C16.3334 12.5332 15.9584 12.9082 15.5 12.9082ZM15.5 9.99984C15.0417 9.99984 14.6667 9.62484 14.6667 9.1665C14.6667 8.70817 15.0417 8.33317 15.5 8.33317C15.9584 8.33317 16.3334 8.70817 16.3334 9.1665C16.3334 9.62484 15.9584 9.99984 15.5 9.99984ZM17.5834 5.95817H3.41669V5.8165C3.41669 4.6915 4.33335 3.77484 5.45835 3.77484H5.59169V4.00817C5.59169 4.35817 5.87502 4.63317 6.21669 4.63317C6.56669 4.63317 6.84169 4.35817 6.84169 4.00817V3.77484H14.1584V4.00817C14.1584 4.35817 14.4417 4.63317 14.7834 4.63317C15.125 4.63317 15.4084 4.35817 15.4084 4.00817V3.77484H15.5417C16.6667 3.77484 17.5834 4.6915 17.5834 5.8165V5.95817Z" fill="#A795F3"/>
</svg>
