<svg width="20" height="20" viewBox="0 0 20 20" fill="none" xmlns="http://www.w3.org/2000/svg">
<path d="M15.0417 2.52484H14.9084V2.2915C14.9084 1.94984 14.625 1.6665 14.2834 1.6665C13.9417 1.6665 13.6584 1.94984 13.6584 2.2915V2.52484H6.34169V2.2915C6.34169 1.94984 6.06669 1.6665 5.71669 1.6665C5.37502 1.6665 5.09169 1.94984 5.09169 2.2915V2.52484H4.95835C3.14169 2.52484 1.66669 3.99983 1.66669 5.8165V15.0415C1.66669 16.8582 3.14169 18.3332 4.95835 18.3332H15.0417C16.8584 18.3332 18.3334 16.8582 18.3334 15.0415V5.8165C18.3334 3.99983 16.8584 2.52484 15.0417 2.52484ZM5.00002 15.8082C4.54169 15.8082 4.16669 15.4415 4.16669 14.9748C4.16669 14.5165 4.54169 14.1415 5.00002 14.1415C5.45835 14.1415 5.83335 14.5165 5.83335 14.9748C5.83335 15.4415 5.45835 15.8082 5.00002 15.8082ZM5.00002 12.9082C4.54169 12.9082 4.16669 12.5332 4.16669 12.0748C4.16669 11.6082 4.54169 11.2415 5.00002 11.2415C5.45835 11.2415 5.83335 11.6082 5.83335 12.0748C5.83335 12.5332 5.45835 12.9082 5.00002 12.9082ZM5.00002 9.99984C4.54169 9.99984 4.16669 9.62484 4.16669 9.1665C4.16669 8.70817 4.54169 8.33317 5.00002 8.33317C5.45835 8.33317 5.83335 8.70817 5.83335 9.1665C5.83335 9.62484 5.45835 9.99984 5.00002 9.99984ZM8.33335 15.8082C7.87502 15.8082 7.50002 15.4415 7.50002 14.9748C7.50002 14.5165 7.87502 14.1415 8.33335 14.1415C8.79169 14.1415 9.16669 14.5165 9.16669 14.9748C9.16669 15.4415 8.79169 15.8082 8.33335 15.8082ZM8.33335 12.9082C7.87502 12.9082 7.50002 12.5332 7.50002 12.0748C7.50002 11.6082 7.87502 11.2415 8.33335 11.2415C8.79169 11.2415 9.16669 11.6082 9.16669 12.0748C9.16669 12.5332 8.79169 12.9082 8.33335 12.9082ZM8.33335 9.99984C7.87502 9.99984 7.50002 9.62484 7.50002 9.1665C7.50002 8.70817 7.87502 8.33317 8.33335 8.33317C8.79169 8.33317 9.16669 8.70817 9.16669 9.1665C9.16669 9.62484 8.79169 9.99984 8.33335 9.99984ZM11.6667 15.8082C11.2084 15.8082 10.8334 15.4415 10.8334 14.9748C10.8334 14.5165 11.2084 14.1415 11.6667 14.1415C12.125 14.1415 12.5 14.5165 12.5 14.9748C12.5 15.4415 12.125 15.8082 11.6667 15.8082ZM11.6667 12.9082C11.2084 12.9082 10.8334 12.5332 10.8334 12.0748C10.8334 11.6082 11.2084 11.2415 11.6667 11.2415C12.125 11.2415 12.5 11.6082 12.5 12.0748C12.5 12.5332 12.125 12.9082 11.6667 12.9082ZM11.6667 9.99984C11.2084 9.99984 10.8334 9.62484 10.8334 9.1665C10.8334 8.70817 11.2084 8.33317 11.6667 8.33317C12.125 8.33317 12.5 8.70817 12.5 9.1665C12.5 9.62484 12.125 9.99984 11.6667 9.99984ZM15 12.9082C14.5417 12.9082 14.1667 12.5332 14.1667 12.0748C14.1667 11.6082 14.5417 11.2415 15 11.2415C15.4584 11.2415 15.8334 11.6082 15.8334 12.0748C15.8334 12.5332 15.4584 12.9082 15 12.9082ZM15 9.99984C14.5417 9.99984 14.1667 9.62484 14.1667 9.1665C14.1667 8.70817 14.5417 8.33317 15 8.33317C15.4584 8.33317 15.8334 8.70817 15.8334 9.1665C15.8334 9.62484 15.4584 9.99984 15 9.99984ZM17.0834 5.95817H2.91669V5.8165C2.91669 4.6915 3.83335 3.77484 4.95835 3.77484H5.09169V4.00817C5.09169 4.35817 5.37502 4.63317 5.71669 4.63317C6.06669 4.63317 6.34169 4.35817 6.34169 4.00817V3.77484H13.6584V4.00817C13.6584 4.35817 13.9417 4.63317 14.2834 4.63317C14.625 4.63317 14.9084 4.35817 14.9084 4.00817V3.77484H15.0417C16.1667 3.77484 17.0834 4.6915 17.0834 5.8165V5.95817Z" fill="#A0A09B"/>
</svg>
