<svg width="60" height="14" viewBox="0 0 60 14" fill="none" xmlns="http://www.w3.org/2000/svg">
<path d="M55.8239 10.8696C55.8239 10.0242 56.5101 9.33838 57.355 9.33838C58.2004 9.33838 58.8858 10.0242 58.8858 10.8696C58.8858 11.7149 58.2004 12.4003 57.355 12.4003C56.5101 12.4003 55.8239 11.7149 55.8239 10.8696Z" fill="#86BC24"/>
<path d="M6.99122 6.81448C6.99122 5.84463 6.80384 5.12511 6.42901 4.65636C6.05373 4.18805 5.48525 3.95412 4.721 3.95412H3.90801V9.88486H4.53002C5.37891 9.88486 6.00099 9.6332 6.39708 9.12812C6.79271 8.62393 6.99122 7.85256 6.99122 6.81448ZM9.89055 6.71347C9.89055 8.48038 9.41559 9.84187 8.46568 10.7975C7.51577 11.7537 6.18043 12.2317 4.45915 12.2317H1.11452V1.64404H4.69262C6.3523 1.64404 7.63361 2.07868 8.53655 2.94751C9.43907 3.81678 9.89055 5.07151 9.89055 6.71347Z" fill="#0F0B0B"/>
<path d="M19.1552 12.2311H21.8166V1.59912H19.1552V12.2311Z" fill="#0F0B0B"/>
<path d="M25.5549 8.26606C25.5549 8.94393 25.6435 9.46097 25.8203 9.8163C25.9976 10.1721 26.2944 10.3497 26.7117 10.3497C27.1247 10.3497 27.4166 10.1721 27.5868 9.8163C27.7569 9.46097 27.8415 8.94393 27.8415 8.26606C27.8415 7.59173 27.7555 7.0831 27.5832 6.73973C27.4104 6.39547 27.1158 6.22312 26.6981 6.22312C26.2896 6.22312 25.9976 6.3946 25.8203 6.73575C25.6435 7.07734 25.5549 7.5873 25.5549 8.26606ZM30.5504 8.26606C30.5504 9.55757 30.2119 10.5651 29.5331 11.2872C28.8548 12.0099 27.9053 12.3714 26.6847 12.3714C25.5142 12.3714 24.5824 12.0019 23.8908 11.2629C23.1983 10.5239 22.8523 9.52522 22.8523 8.26606C22.8523 6.97854 23.1913 5.97812 23.87 5.2648C24.5488 4.55148 25.5004 4.19482 26.7259 4.19482C27.4831 4.19482 28.153 4.36009 28.7334 4.69017C29.3143 5.02024 29.7627 5.49298 30.0777 6.10883C30.3931 6.72379 30.5504 7.44331 30.5504 8.26606Z" fill="#0F0B0B"/>
<path d="M31.6082 12.2319H34.27V8.16292V4.33447H31.6082V12.2319Z" fill="#0F0B0B"/>
<path d="M31.6072 3.37887H34.2691V1.59912H31.6072V3.37887Z" fill="#0F0B0B"/>
<path d="M39.6623 10.2168C40.0217 10.2168 40.4496 10.1256 40.9489 9.94438V11.9315C40.59 12.0892 40.2489 12.2022 39.9246 12.2691C39.6003 12.3369 39.2197 12.3705 38.7842 12.3705C37.8905 12.3705 37.2463 12.1459 36.8506 11.6975C36.4568 11.2492 36.2592 10.5607 36.2592 9.63158V6.37601H35.327V4.33441H36.2592V2.31762L38.9415 1.85107V4.33441H40.6397V6.37601H38.9415V9.44992C38.9415 9.9612 39.182 10.2168 39.6623 10.2168Z" fill="#0F0B0B"/>
<path d="M45.823 10.2168C46.1824 10.2168 46.6104 10.1256 47.1097 9.94438V11.9315C46.7513 12.0892 46.4096 12.2022 46.0853 12.2691C45.7606 12.3369 45.3813 12.3705 44.9449 12.3705C44.0513 12.3705 43.4071 12.1459 43.0123 11.6975C42.6176 11.2492 42.42 10.5607 42.42 9.63158V6.37601H41.4873V4.33441H42.42V2.28705L45.1018 1.85107V4.33441H46.8009V6.37601H45.1018V9.44992C45.1018 9.9612 45.3423 10.2168 45.823 10.2168Z" fill="#0F0B0B"/>
<path d="M50.4678 7.30374C50.5041 6.87131 50.6278 6.55453 50.8387 6.35206C51.0505 6.15002 51.3119 6.04901 51.6246 6.04901C51.9658 6.04901 52.2369 6.16242 52.4381 6.39104C52.6405 6.61833 52.746 6.92271 52.7544 7.30374H50.4678ZM54.2214 5.12569C53.5887 4.50542 52.691 4.19482 51.5298 4.19482C50.3092 4.19482 49.3699 4.55148 48.7116 5.2648C48.0536 5.97812 47.7244 7.00158 47.7244 8.33518C47.7244 9.62668 48.0802 10.6227 48.79 11.3218C49.5002 12.0209 50.4974 12.371 51.7819 12.371C52.3986 12.371 52.9295 12.3289 53.3743 12.2451C53.8164 12.1623 54.2444 12.0125 54.6596 11.7963L54.2506 10.0166C53.9489 10.1397 53.6618 10.2345 53.3906 10.297C52.999 10.3878 52.5693 10.4335 52.1014 10.4335C51.5883 10.4335 51.1834 10.3081 50.8865 10.0573C50.5897 9.8061 50.4315 9.45965 50.4133 9.01837H55.1708V7.80572C55.1708 6.63916 54.8545 5.74553 54.2214 5.12569Z" fill="#0F0B0B"/>
<path d="M13.4229 7.30374C13.4592 6.87131 13.5828 6.55453 13.7937 6.35206C14.005 6.15002 14.2669 6.04901 14.5802 6.04901C14.9205 6.04901 15.1916 6.16242 15.3932 6.39104C15.5957 6.61833 15.7007 6.92271 15.71 7.30374H13.4229ZM17.1769 5.12569C16.5438 4.50542 15.6466 4.19482 14.4849 4.19482C13.2638 4.19482 12.325 4.55148 11.667 5.2648C11.0091 5.97812 10.6795 7.00158 10.6795 8.33518C10.6795 9.62668 11.0349 10.6227 11.7455 11.3218C12.4553 12.0209 13.4526 12.371 14.737 12.371C15.3537 12.371 15.8845 12.3289 16.3293 12.2451C16.7715 12.1623 17.1995 12.0125 17.6151 11.7963L17.2057 10.0166C16.904 10.1397 16.6169 10.2345 16.3462 10.297C15.9536 10.3878 15.5243 10.4335 15.0564 10.4335C14.5438 10.4335 14.1385 10.3081 13.8416 10.0573C13.5443 9.8061 13.3866 9.45965 13.3685 9.01837H18.1259V7.80572C18.1259 6.63916 17.8096 5.74553 17.1769 5.12569Z" fill="#0F0B0B"/>
</svg>
