<svg width="83" height="40" viewBox="0 0 83 40" fill="none" xmlns="http://www.w3.org/2000/svg">
<path d="M57.8999 6.26364V0.940119H59.0888V5.30297H61.4347V6.26364H57.8999ZM55.0496 4.40072L54.2588 2.06539L53.4574 4.40072H55.0496ZM56.9392 6.26364H55.6707L55.331 5.24992H53.1709L52.8258 6.26364H51.706L53.6539 0.940119H55.0178L56.9392 6.26364ZM47.8898 3.08972H49.0574C49.4927 3.08972 49.7156 2.88277 49.7156 2.46342C49.7156 2.05478 49.4767 1.84773 49.0043 1.84773H47.8898V3.08972ZM47.8898 5.35602H49.1212C49.3918 5.35602 49.5936 5.2765 49.7261 5.12786C49.8377 5.00579 49.8907 4.84654 49.8907 4.64485C49.8907 4.17245 49.62 3.93892 49.0786 3.93892H47.8898V5.35602ZM46.7221 6.26364V0.940119H49.1265C49.7687 0.940119 50.2411 1.09937 50.5384 1.41252C50.7559 1.64079 50.8674 1.95394 50.8674 2.34661C50.8674 2.63328 50.809 2.86145 50.6975 3.03667C50.5807 3.21178 50.3844 3.36042 50.1136 3.48774C50.3844 3.58334 50.586 3.70015 50.7293 3.83272C50.9576 4.05563 51.0691 4.36353 51.0691 4.76691C51.0691 5.23931 50.9204 5.60026 50.6285 5.84964C50.3101 6.1256 49.8377 6.26364 49.206 6.26364H46.7221ZM42.8422 1.8159C42.3753 1.8159 42.025 2.02285 41.7861 2.43684C41.611 2.73938 41.526 3.1268 41.526 3.5992C41.526 4.26268 41.6958 4.75094 42.025 5.06409C42.2531 5.2765 42.5344 5.3826 42.8742 5.3826C43.3624 5.3826 43.718 5.18616 43.9463 4.78288C44.1214 4.47498 44.2064 4.08757 44.2064 3.61517C44.2064 3.13215 44.1214 2.73938 43.9409 2.43684C43.7021 2.02285 43.336 1.8159 42.8422 1.8159ZM42.9006 0.855241C43.235 0.855241 43.5641 0.9189 43.8773 1.04632C44.1851 1.16839 44.4558 1.34886 44.6893 1.57702C45.1988 2.08651 45.4483 2.75535 45.4483 3.57798C45.4483 4.42193 45.1936 5.10128 44.6787 5.62137C44.2064 6.10438 43.5959 6.34326 42.8529 6.34326C42.1204 6.34326 41.51 6.10438 41.0377 5.62673C40.5387 5.11189 40.284 4.44315 40.284 3.60981C40.284 2.78718 40.5441 2.11308 41.0643 1.58763C41.5419 1.09937 42.1524 0.855241 42.9006 0.855241ZM36.0592 6.26364V0.940119H37.2481V5.30297H39.594V6.26364H36.0592ZM33.7875 5.48344C33.5965 5.7594 33.3842 5.9611 33.156 6.09377C32.8693 6.26364 32.5297 6.34326 32.1422 6.34326C31.4575 6.34326 30.8897 6.12035 30.4438 5.67978C29.9342 5.17555 29.6795 4.49084 29.6795 3.63113C29.6795 2.77657 29.9396 2.09187 30.4597 1.57177C30.9373 1.09401 31.5372 0.855241 32.259 0.855241C32.9224 0.855241 33.4638 1.04632 33.8725 1.42313C34.0954 1.61957 34.2917 1.90614 34.451 2.27234L33.3629 2.70755C33.2674 2.44756 33.1613 2.25112 33.0391 2.12905C32.8428 1.922 32.5775 1.8159 32.2431 1.8159C31.7707 1.8159 31.4204 2.0176 31.1922 2.41037C31.0116 2.72352 30.9215 3.1268 30.9215 3.62042C30.9215 4.09818 31.0116 4.48559 31.1868 4.78288C31.4204 5.18616 31.7866 5.3826 32.2909 5.3826C32.6571 5.3826 32.9595 5.27114 33.1878 5.05348C33.3947 4.85179 33.5009 4.59169 33.5009 4.27865V4.23621H32.3758V3.34982H34.6579V6.26364H33.9998L33.7875 5.48344Z" fill="#FA7A2A"/>
<path d="M76.3065 15.5412V8.84832H77.8033V14.3311H80.7489V15.5412H76.3065ZM73.0847 13.2006L72.087 10.2655L71.0785 13.2006H73.0847ZM75.4626 15.5412H73.865L73.4351 14.2674H70.7229L70.2877 15.5412H68.8813L71.328 8.84832H73.0477L75.4626 15.5412ZM66.4929 8.84832H67.9896V15.5412H66.4929V8.84832ZM65.3304 13.7048C65.1978 14.0392 65.0545 14.3099 64.9058 14.5116C64.7572 14.7186 64.5715 14.9096 64.3432 15.0795C63.8443 15.4564 63.2286 15.6421 62.5016 15.6421C61.5674 15.6421 60.8138 15.3555 60.2352 14.7875C59.6089 14.1613 59.2905 13.3068 59.2905 12.2187C59.2905 11.1518 59.6141 10.2921 60.2564 9.63387C60.8403 9.03951 61.5833 8.74222 62.475 8.74222C63.3136 8.74222 63.9823 8.9811 64.4918 9.45876C64.7731 9.72411 65.0332 10.1063 65.2562 10.6159L63.9239 11.1625C63.7913 10.8016 63.6426 10.5362 63.4781 10.361C63.2234 10.0904 62.889 9.95238 62.4697 9.95238C61.8858 9.95238 61.4613 10.1913 61.1852 10.6742C60.9623 11.0617 60.8561 11.5659 60.8561 12.1869C60.8561 12.8131 60.9623 13.3174 61.1852 13.6994C61.4613 14.1931 61.9018 14.4373 62.5016 14.4373C62.873 14.4373 63.1756 14.3364 63.4091 14.1348C63.648 13.9331 63.8391 13.6093 63.993 13.1635L65.3304 13.7048ZM52.449 15.5412V8.84832H54.1579L56.6367 13.3864V8.84832H58.0007V15.5412H56.3607L53.8183 10.8972V15.5412H52.449ZM49.2272 13.2006L48.2348 10.2655L47.2262 13.2006H49.2272ZM51.6051 15.5412H50.0127L49.5829 14.2674H46.8707L46.4354 15.5412H45.0237L47.4757 8.84832H49.1954L51.6051 15.5412ZM38.5962 15.5412V8.84832H40.3052L42.7839 13.3864V8.84832H44.1479V15.5412H42.5078L39.9655 10.8972V15.5412H38.5962ZM35.5178 8.84832H37.0145V15.5412H35.5178V8.84832ZM29.6901 15.5412V8.84832H34.3077V10.0532H31.1921V11.8259H33.5965V12.9936H31.1921V15.5412H29.6901Z" fill="#0B0B0A"/>
<path d="M77.3046 23.0304L78.5996 22.4785C78.7164 22.7703 78.8651 22.9879 79.0454 23.1312C79.3109 23.3489 79.6505 23.455 80.0751 23.455C80.4095 23.455 80.6908 23.3913 80.9031 23.264C81.1525 23.1312 81.2747 22.9189 81.2747 22.6323C81.2747 22.4041 81.195 22.2342 81.0305 22.1228C80.8659 22.0059 80.5422 21.8945 80.0592 21.7778C79.5338 21.6557 79.1569 21.5549 78.934 21.4806C78.7057 21.4116 78.52 21.3213 78.3607 21.2259C77.8565 20.9021 77.607 20.4244 77.607 19.7928C77.607 19.0603 77.8725 18.5136 78.4139 18.1527C78.8279 17.882 79.348 17.744 79.9795 17.744C81.2004 17.744 82.0655 18.2058 82.5643 19.1293L81.3702 19.6919C81.2004 19.4106 81.0146 19.2089 80.8076 19.0921C80.6059 18.9807 80.3351 18.9223 79.9955 18.9223C79.6876 18.9223 79.4542 18.986 79.2843 19.1081C79.1197 19.2355 79.0348 19.4106 79.0348 19.6389C79.0348 19.8511 79.1197 20.0103 79.2896 20.1324C79.4594 20.2439 79.7566 20.3447 80.1918 20.4296C81.0358 20.5995 81.6249 20.7906 81.954 21.0029C82.4741 21.3372 82.7342 21.8468 82.7342 22.5369C82.7342 23.0782 82.5909 23.5187 82.299 23.8636C82.0601 24.1449 81.7098 24.352 81.2427 24.4847C80.8978 24.5855 80.5157 24.6333 80.091 24.6333C79.3904 24.6333 78.8172 24.506 78.3713 24.2511C77.9203 23.991 77.5699 23.5877 77.3046 23.0304ZM75.0276 20.4296V19.8883C75.4523 19.761 75.6804 19.4478 75.7124 18.9594C75.6752 18.9542 75.6486 18.9542 75.6326 18.9489C75.3939 18.933 75.2028 18.8586 75.07 18.7313C74.9373 18.6039 74.8737 18.4287 74.8737 18.2164C74.8737 17.9988 74.9427 17.8183 75.0913 17.675C75.2399 17.5317 75.4257 17.4627 75.654 17.4627C75.9299 17.4627 76.1475 17.5636 76.3066 17.7653C76.466 17.967 76.5456 18.243 76.5456 18.5933C76.5456 19.1611 76.397 19.6123 76.0944 19.9414C75.9564 20.09 75.8078 20.2015 75.6486 20.2758C75.4946 20.3447 75.2877 20.3979 75.0276 20.4296ZM69.9005 20.8596H71.1371C71.4768 20.8596 71.7423 20.78 71.9227 20.6208C72.1031 20.4562 72.1934 20.2228 72.1934 19.9202C72.1934 19.3098 71.8749 19.0072 71.2381 19.0072H69.9005V20.8596ZM68.4197 24.5325V17.8343H71.36C72.1774 17.8343 72.7878 18.0518 73.1911 18.4818C73.499 18.8108 73.653 19.2355 73.653 19.7504C73.653 20.2015 73.5521 20.5677 73.3505 20.8437C73.1434 21.1144 72.8249 21.3161 72.395 21.4487C72.7188 21.5549 72.9576 21.6982 73.1009 21.8786C73.2495 22.0591 73.3663 22.3616 73.4619 22.7862C73.6689 23.6937 73.8547 24.2617 74.0139 24.4953V24.5325H72.4747C72.3154 24.2405 72.1508 23.7098 71.9757 22.9243C71.9014 22.5793 71.7846 22.3352 71.6201 22.1918C71.461 22.0485 71.2273 21.9742 70.9196 21.9742H69.9005V24.5325H68.4197ZM62.3744 24.5325V17.8343H67.0715V19.0444H63.8552V20.5518H66.3073V21.6663H63.8552V23.3223H67.2254V24.5325H62.3744ZM55.2886 24.5325V17.8343H56.9925L59.4765 22.3775V17.8343H60.8404V24.5325H59.2004L56.6581 19.883V24.5325H55.2886ZM48.203 24.5325V17.8343H49.9069L52.3908 22.3775V17.8343H53.7548V24.5325H52.1148L49.5724 19.883V24.5325H48.203ZM44.9814 22.1918L43.9836 19.2514L42.9805 22.1918H44.9814ZM47.3592 24.5325H45.767L45.3317 23.2586H42.6195L42.1843 24.5325H40.7778L43.23 17.8343H44.9442L47.3592 24.5325ZM36.0646 24.5325V17.8343H37.5667V23.3223H40.5124V24.5325H36.0646ZM31.1711 20.9605H32.4184C32.758 20.9605 33.0181 20.8808 33.1986 20.7109C33.3737 20.541 33.464 20.297 33.464 19.9733C33.464 19.3416 33.119 19.0231 32.429 19.0231H31.1711V20.9605ZM29.669 24.5325V17.8343H32.5192C33.3631 17.8343 33.9948 18.0732 34.4193 18.5455C34.759 18.917 34.9236 19.4053 34.9236 20.0051C34.9236 20.6526 34.7166 21.1568 34.3078 21.523C33.8939 21.8945 33.3153 22.0751 32.5829 22.0751H31.1711V24.5325H29.669Z" fill="#0B0B0A"/>
<path d="M58.0432 32.7061V28.3433H56.5411V27.3826H60.7395V28.3433H59.2321V32.7061H58.0432ZM54.5827 27.3826H55.7715V32.7061H54.5827V27.3826ZM47.4971 27.3826H49.206L50.4108 31.0342L51.621 27.3826H53.3248V32.7061H52.157V28.7041L50.7984 32.7061H49.9227L48.5585 28.6882V32.7061H47.4971V27.3826ZM40.4486 27.3826H42.1576L43.3624 31.0342L44.5726 27.3826H46.2762V32.7061H45.1086V28.7041L43.7499 32.7061H42.8688L41.5101 28.6882V32.7061H40.4486V27.3826ZM39.2703 27.3826V30.5725C39.2703 31.2147 39.127 31.7189 38.8298 32.0904C38.4635 32.5521 37.885 32.7856 37.0995 32.7856C36.3351 32.7856 35.7674 32.5734 35.3958 32.1435C35.072 31.7719 34.9074 31.2623 34.9074 30.6043V27.3826H36.1017V30.5406C36.1017 30.9333 36.16 31.2305 36.2768 31.427C36.4255 31.6871 36.7067 31.8197 37.1101 31.8197C37.4658 31.8197 37.7258 31.7135 37.8956 31.5013C38.0602 31.2889 38.1398 30.9599 38.1398 30.4981V27.3826H39.2703ZM29.6848 31.5118L30.7092 31.0766C30.81 31.3049 30.9268 31.4801 31.0701 31.5916C31.2771 31.7614 31.5478 31.8463 31.8874 31.8463C32.1529 31.8463 32.3758 31.7985 32.5456 31.6977C32.742 31.5916 32.8428 31.4217 32.8428 31.1934C32.8428 31.013 32.7738 30.8803 32.6464 30.79C32.5191 30.6998 32.259 30.6097 31.8768 30.5194C31.4522 30.4185 31.155 30.3389 30.9799 30.2805C30.7994 30.2222 30.6508 30.1531 30.5234 30.0788C30.1253 29.8188 29.9236 29.442 29.9236 28.9377C29.9236 28.3539 30.1359 27.9187 30.5658 27.632C30.8949 27.4144 31.3089 27.3083 31.8079 27.3083C32.7844 27.3083 33.4691 27.6745 33.8672 28.4069L32.9171 28.8581C32.7792 28.6298 32.6358 28.4707 32.4713 28.3805C32.3068 28.2902 32.0945 28.2477 31.8237 28.2477C31.5796 28.2477 31.3938 28.2955 31.2612 28.3963C31.1284 28.4919 31.0594 28.6352 31.0594 28.8156C31.0594 28.9854 31.1284 29.1129 31.2612 29.203C31.3938 29.2986 31.6327 29.3782 31.983 29.4472C32.6517 29.5799 33.1188 29.7339 33.3789 29.8984C33.7929 30.1638 33.9998 30.5725 33.9998 31.1191C33.9998 31.549 33.8831 31.8994 33.6548 32.1753C33.4638 32.3982 33.1878 32.5627 32.8162 32.6689C32.5456 32.7486 32.2377 32.7856 31.9034 32.7856C31.3461 32.7856 30.8897 32.6849 30.5341 32.4832C30.1731 32.2762 29.8918 31.9524 29.6848 31.5118Z" fill="#FA7A2A"/>
<path fill-rule="evenodd" clip-rule="evenodd" d="M62.7933 26.9845H81.6564V33.688H62.7933V26.9845Z" fill="#FA7A2A"/>
<path d="M78.5198 30.2275C79.0241 30.3974 79.2735 30.7212 79.2735 31.2042C79.2735 31.5917 79.1249 31.8995 78.833 32.1224C78.5623 32.3293 78.1908 32.4355 77.729 32.4355C77.2302 32.4355 76.8267 32.3081 76.5295 32.0587C76.3172 31.873 76.1739 31.6234 76.0996 31.2997L76.8904 31.098C76.9542 31.3368 77.0603 31.5015 77.2036 31.6022C77.3309 31.6924 77.4954 31.7349 77.6918 31.7349C77.8723 31.7349 78.0263 31.6924 78.1429 31.6129C78.2863 31.512 78.3553 31.3634 78.3553 31.1617C78.3553 30.9865 78.2969 30.8486 78.1801 30.753C78.0686 30.6575 77.9041 30.6097 77.6972 30.6097H77.3204V29.9674H77.6653C77.8246 29.9674 77.9519 29.9356 78.058 29.872C78.2067 29.7817 78.2809 29.6384 78.2809 29.4474C78.2809 29.2881 78.2333 29.166 78.1324 29.0705C78.0368 28.9803 77.9041 28.9325 77.7396 28.9325C77.4 28.9325 77.1505 29.1236 76.9965 29.5058L76.2641 29.2987C76.4977 28.5875 77.0019 28.2319 77.7767 28.2319C78.212 28.2319 78.557 28.3434 78.8118 28.5717C79.0506 28.7785 79.1673 29.044 79.1673 29.3678C79.1673 29.7605 78.9551 30.0524 78.5198 30.2275ZM72.5754 32.3771V31.6818C73.0956 31.3528 73.483 31.0715 73.7431 30.8379C74.2473 30.3868 74.5021 29.941 74.5021 29.5058C74.5021 29.3253 74.4595 29.1873 74.3693 29.0865C74.2791 28.9856 74.1517 28.9325 73.9925 28.9325C73.8386 28.9325 73.7112 28.9856 73.6157 29.0812C73.5202 29.1766 73.4404 29.3359 73.3821 29.5536L72.5806 29.3625C72.6656 29.0493 72.7877 28.8104 72.9469 28.6459C73.2123 28.3699 73.5732 28.2319 74.0297 28.2319C74.4383 28.2319 74.7673 28.338 75.0168 28.5505C75.2875 28.7785 75.4202 29.1024 75.4202 29.5164C75.4202 30.0366 75.1867 30.5196 74.7196 30.9653C74.5073 31.1671 74.1782 31.4059 73.7377 31.6712H75.468V32.3771H72.5754ZM70.3461 28.9325C70.1604 28.9325 70.0171 29.0386 69.9163 29.2457C69.7889 29.4951 69.7305 29.8667 69.7305 30.3549C69.7305 30.7902 69.7835 31.1299 69.8897 31.3687C69.9959 31.6129 70.1497 31.7349 70.3461 31.7349C70.5266 31.7349 70.6699 31.634 70.7761 31.4218C70.8982 31.1722 70.9619 30.8114 70.9619 30.3337C70.9619 29.8879 70.9087 29.5428 70.8026 29.2987C70.6911 29.0546 70.5425 28.9325 70.3461 28.9325ZM70.3461 28.2319C70.6647 28.2319 70.9406 28.3222 71.1795 28.5025C71.4448 28.7042 71.6412 29.0175 71.7632 29.4421C71.8375 29.7181 71.8801 30.0153 71.8801 30.3337C71.8801 30.9335 71.7474 31.4323 71.4926 31.8358C71.3494 32.0587 71.1583 32.2179 70.914 32.324C70.7442 32.3984 70.5532 32.4355 70.3461 32.4355C70.0224 32.4355 69.7464 32.3507 69.5076 32.1702C69.2422 31.9684 69.0511 31.6552 68.9291 31.2254C68.8494 30.9493 68.8122 30.6469 68.8122 30.3125C68.8122 30.0312 68.8442 29.7605 68.9131 29.5058C68.9768 29.2457 69.0723 29.0227 69.1998 28.8369C69.4599 28.4336 69.8419 28.2319 70.3461 28.2319ZM65.1819 32.3771V31.6818C65.702 31.3528 66.0895 31.0715 66.3495 30.8379C66.8538 30.3868 67.1086 29.941 67.1086 29.5058C67.1086 29.3253 67.0661 29.1873 66.9758 29.0865C66.8856 28.9856 66.7582 28.9325 66.5991 28.9325C66.4451 28.9325 66.3178 28.9856 66.2222 29.0812C66.1266 29.1766 66.0471 29.3359 65.9887 29.5536L65.1872 29.3625C65.2721 29.0493 65.3942 28.8104 65.5534 28.6459C65.8188 28.3699 66.1797 28.2319 66.6362 28.2319C67.0449 28.2319 67.3739 28.338 67.6234 28.5505C67.8941 28.7785 68.0268 29.1024 68.0268 29.5164C68.0268 30.0366 67.7932 30.5196 67.3262 30.9653C67.1138 31.1671 66.7848 31.4059 66.3443 31.6712H68.0745V32.3771H65.1819Z" fill="#FEFEFE"/>
<mask id="mask0_8509_4024" style="mask-type:luminance" maskUnits="userSpaceOnUse" x="0" y="0" width="27" height="40">
<path d="M12.7381 5.16467C12.9504 8.33334 18.6986 12.2449 24.2397 14.3892V3.31225C21.1242 2.02247 20.3865 0.552437 25.296 0.499283C24.8397 0.410225 23.4441 0.266403 21.7382 0.26651C17.7492 0.26651 12.0653 1.05291 12.7381 5.16467ZM3.16331 10.6315C0.0690201 19.1978 15.9121 29.2451 26.5485 31.3204C26.5432 26.9257 26.5378 22.5311 26.5272 18.1416C15.0416 12.7439 6.67696 7.31416 12.1544 1.73601C8.26917 3.86428 4.90953 6.48628 3.16331 10.6315ZM0 20.9441C0 29.9404 5.23328 37.509 12.3401 39.7329L23.6082 32.3925C13.4017 30.7206 0.642156 21.5332 1.53391 12.7863C0.55192 15.2702 0 18.0302 0 20.9441Z" fill="white"/>
</mask>
<g mask="url(#mask0_8509_4024)">
<path fill-rule="evenodd" clip-rule="evenodd" d="M0 -0.705513H0.153892V39.7329H0V-0.705513Z" fill="#FF8A11"/>
<path fill-rule="evenodd" clip-rule="evenodd" d="M0.105896 -0.705513H0.259788V39.7329H0.105896V-0.705513Z" fill="#FF8A12"/>
<path fill-rule="evenodd" clip-rule="evenodd" d="M0.207153 -0.705513H0.366409V39.7329H0.207153V-0.705513Z" fill="#FF8913"/>
<path fill-rule="evenodd" clip-rule="evenodd" d="M0.313049 -0.705513H0.467053V39.7329H0.313049V-0.705513Z" fill="#FF8913"/>
<path fill-rule="evenodd" clip-rule="evenodd" d="M0.414307 -0.705513H0.573562V39.7329H0.414307V-0.705513Z" fill="#FE8814"/>
<path fill-rule="evenodd" clip-rule="evenodd" d="M0.520203 -0.705513H0.674095V39.7329H0.520203V-0.705513Z" fill="#FE8815"/>
<path fill-rule="evenodd" clip-rule="evenodd" d="M0.620239 -0.705513H0.779495V39.7329H0.620239V-0.705513Z" fill="#FE8716"/>
<path fill-rule="evenodd" clip-rule="evenodd" d="M0.727356 -0.705513H0.881255V39.7329H0.727356V-0.705513Z" fill="#FE8716"/>
<path fill-rule="evenodd" clip-rule="evenodd" d="M0.827393 -0.705513H0.986642V39.7329H0.827393V-0.705513Z" fill="#FE8617"/>
<path fill-rule="evenodd" clip-rule="evenodd" d="M0.934509 -0.705513H1.08851V39.7329H0.934509V-0.705513Z" fill="#FE8618"/>
<path fill-rule="evenodd" clip-rule="evenodd" d="M1.03979 -0.705513H1.19369V39.7329H1.03979V-0.705513Z" fill="#FE8519"/>
<path fill-rule="evenodd" clip-rule="evenodd" d="M1.14105 -0.705513H1.29494V39.7329H1.14105V-0.705513Z" fill="#FD8519"/>
<path fill-rule="evenodd" clip-rule="evenodd" d="M1.24695 -0.705513H1.40085V39.7329H1.24695V-0.705513Z" fill="#FD841A"/>
<path fill-rule="evenodd" clip-rule="evenodd" d="M1.34821 -0.705513H1.5021V39.7329H1.34821V-0.705513Z" fill="#FD841B"/>
<path fill-rule="evenodd" clip-rule="evenodd" d="M1.4541 -0.705513H1.6081V39.7329H1.4541V-0.705513Z" fill="#FD831C"/>
<path fill-rule="evenodd" clip-rule="evenodd" d="M1.55475 -0.705513H1.714V39.7329H1.55475V-0.705513Z" fill="#FD831C"/>
<path fill-rule="evenodd" clip-rule="evenodd" d="M1.66064 -0.705513H1.81454V39.7329H1.66064V-0.705513Z" fill="#FD821D"/>
<path fill-rule="evenodd" clip-rule="evenodd" d="M1.7619 -0.705513H1.92115V39.7329H1.7619V-0.705513Z" fill="#FD821E"/>
<path fill-rule="evenodd" clip-rule="evenodd" d="M1.86841 -0.705513H2.02231V39.7329H1.86841V-0.705513Z" fill="#FD811F"/>
<path fill-rule="evenodd" clip-rule="evenodd" d="M1.96906 -0.705513H2.1283V39.7329H1.96906V-0.705513Z" fill="#FC811F"/>
<path fill-rule="evenodd" clip-rule="evenodd" d="M2.07434 -0.705513H2.22834V39.7329H2.07434V-0.705513Z" fill="#FC8120"/>
<path fill-rule="evenodd" clip-rule="evenodd" d="M2.17621 -0.705513H2.33546V39.7329H2.17621V-0.705513Z" fill="#FC8021"/>
<path fill-rule="evenodd" clip-rule="evenodd" d="M2.28149 -0.705513H2.43539V39.7329H2.28149V-0.705513Z" fill="#FC8022"/>
<path fill-rule="evenodd" clip-rule="evenodd" d="M2.38745 -0.705513H2.54145V39.7329H2.38745V-0.705513Z" fill="#FC7F22"/>
<path fill-rule="evenodd" clip-rule="evenodd" d="M2.48981 -0.705513H2.6437V39.7329H2.48981V-0.705513Z" fill="#FC7F23"/>
<path fill-rule="evenodd" clip-rule="evenodd" d="M2.59454 -0.705513H2.74855V39.7329H2.59454V-0.705513Z" fill="#FC7E24"/>
<path fill-rule="evenodd" clip-rule="evenodd" d="M2.6958 -0.705513H2.8498V39.7329H2.6958V-0.705513Z" fill="#FB7E25"/>
<path fill-rule="evenodd" clip-rule="evenodd" d="M2.8017 -0.705513H2.9556V39.7329H2.8017V-0.705513Z" fill="#FB7D25"/>
<path fill-rule="evenodd" clip-rule="evenodd" d="M2.90295 -0.705513H3.0622V39.7329H2.90295V-0.705513Z" fill="#FB7D26"/>
<path fill-rule="evenodd" clip-rule="evenodd" d="M3.00946 -0.705513H3.16336V39.7329H3.00946V-0.705513Z" fill="#FB7C27"/>
<path fill-rule="evenodd" clip-rule="evenodd" d="M3.11011 -0.705513H3.26936V39.7329H3.11011V-0.705513Z" fill="#FB7C28"/>
<path fill-rule="evenodd" clip-rule="evenodd" d="M3.216 -0.705513H3.37V39.7329H3.216V-0.705513Z" fill="#FB7B28"/>
<path fill-rule="evenodd" clip-rule="evenodd" d="M3.3172 -0.705513H3.47646V39.7329H3.3172V-0.705513Z" fill="#FB7B29"/>
<path fill-rule="evenodd" clip-rule="evenodd" d="M3.42316 -0.705513H3.57706V39.7329H3.42316V-0.705513Z" fill="#FA7A2A"/>
<path fill-rule="evenodd" clip-rule="evenodd" d="M3.5238 -0.705513H3.68305V39.7329H3.5238V-0.705513Z" fill="#FA7A2B"/>
<path fill-rule="evenodd" clip-rule="evenodd" d="M3.63031 -0.705513H3.7842V39.7329H3.63031V-0.705513Z" fill="#FA792B"/>
<path fill-rule="evenodd" clip-rule="evenodd" d="M3.73676 -0.705513H3.89075V39.7329H3.73676V-0.705513Z" fill="#FA792C"/>
<path fill-rule="evenodd" clip-rule="evenodd" d="M3.8374 -0.705513H3.99141V39.7329H3.8374V-0.705513Z" fill="#FA782D"/>
<path fill-rule="evenodd" clip-rule="evenodd" d="M3.94275 -0.705513H4.09664V39.7329H3.94275V-0.705513Z" fill="#FA782E"/>
<path fill-rule="evenodd" clip-rule="evenodd" d="M4.04456 -0.705513H4.19845V39.7329H4.04456V-0.705513Z" fill="#FA772E"/>
<path fill-rule="evenodd" clip-rule="evenodd" d="M4.1499 -0.705513H4.30379V39.7329H4.1499V-0.705513Z" fill="#FA772F"/>
<path fill-rule="evenodd" clip-rule="evenodd" d="M4.25171 -0.705513H4.41086V39.7329H4.25171V-0.705513Z" fill="#F97730"/>
<path fill-rule="evenodd" clip-rule="evenodd" d="M4.35706 -0.705513H4.51106V39.7329H4.35706V-0.705513Z" fill="#F97631"/>
<path fill-rule="evenodd" clip-rule="evenodd" d="M4.4577 -0.705513H4.61695V39.7329H4.4577V-0.705513Z" fill="#F97631"/>
<path fill-rule="evenodd" clip-rule="evenodd" d="M4.56421 -0.705513H4.71811V39.7329H4.56421V-0.705513Z" fill="#F97532"/>
<path fill-rule="evenodd" clip-rule="evenodd" d="M4.66486 -0.705513H4.82411V39.7329H4.66486V-0.705513Z" fill="#F97533"/>
<path fill-rule="evenodd" clip-rule="evenodd" d="M4.77136 -0.705513H4.92525V39.7329H4.77136V-0.705513Z" fill="#F97434"/>
<path fill-rule="evenodd" clip-rule="evenodd" d="M4.87726 -0.705513H5.03126V39.7329H4.87726V-0.705513Z" fill="#F97434"/>
<path fill-rule="evenodd" clip-rule="evenodd" d="M4.97845 -0.705513H5.13246V39.7329H4.97845V-0.705513Z" fill="#F87335"/>
<path fill-rule="evenodd" clip-rule="evenodd" d="M5.08441 -0.705513H5.2383V39.7329H5.08441V-0.705513Z" fill="#F87336"/>
<path fill-rule="evenodd" clip-rule="evenodd" d="M5.18561 -0.705513H5.33951V39.7329H5.18561V-0.705513Z" fill="#F87237"/>
<path fill-rule="evenodd" clip-rule="evenodd" d="M5.2915 -0.705513H5.44551V39.7329H5.2915V-0.705513Z" fill="#F87237"/>
<path fill-rule="evenodd" clip-rule="evenodd" d="M5.39215 -0.705513H5.5513V39.7329H5.39215V-0.705513Z" fill="#F87138"/>
<path fill-rule="evenodd" clip-rule="evenodd" d="M5.49866 -0.705513H5.65266V39.7329H5.49866V-0.705513Z" fill="#F87139"/>
<path fill-rule="evenodd" clip-rule="evenodd" d="M5.5993 -0.705513H5.75855V39.7329H5.5993V-0.705513Z" fill="#F8703A"/>
<path fill-rule="evenodd" clip-rule="evenodd" d="M5.70581 -0.705513H5.85971V39.7329H5.70581V-0.705513Z" fill="#F7703A"/>
<path fill-rule="evenodd" clip-rule="evenodd" d="M5.80591 -0.705513H5.96516V39.7329H5.80591V-0.705513Z" fill="#F76F3B"/>
<path fill-rule="evenodd" clip-rule="evenodd" d="M5.91296 -0.705513H6.06686V39.7329H5.91296V-0.705513Z" fill="#F76F3C"/>
<path fill-rule="evenodd" clip-rule="evenodd" d="M6.013 -0.705513H6.17214V39.7329H6.013V-0.705513Z" fill="#F76E3D"/>
<path fill-rule="evenodd" clip-rule="evenodd" d="M6.12012 -0.705513H6.27411V39.7329H6.12012V-0.705513Z" fill="#F76E3D"/>
<path fill-rule="evenodd" clip-rule="evenodd" d="M6.22546 -0.705513H6.37936V39.7329H6.22546V-0.705513Z" fill="#F76E3E"/>
<path fill-rule="evenodd" clip-rule="evenodd" d="M6.32611 -0.705513H6.48V39.7329H6.32611V-0.705513Z" fill="#F76D3F"/>
<path fill-rule="evenodd" clip-rule="evenodd" d="M6.43256 -0.705513H6.58656V39.7329H6.43256V-0.705513Z" fill="#F66D40"/>
<path fill-rule="evenodd" clip-rule="evenodd" d="M6.5332 -0.705513H6.6871V39.7329H6.5332V-0.705513Z" fill="#F66C40"/>
<path fill-rule="evenodd" clip-rule="evenodd" d="M6.63916 -0.705513H6.79316V39.7329H6.63916V-0.705513Z" fill="#F66C41"/>
<path fill-rule="evenodd" clip-rule="evenodd" d="M6.74036 -0.705513H6.89961V39.7329H6.74036V-0.705513Z" fill="#F66B42"/>
<path fill-rule="evenodd" clip-rule="evenodd" d="M6.84686 -0.705513H7.00075V39.7329H6.84686V-0.705513Z" fill="#F66B43"/>
<path fill-rule="evenodd" clip-rule="evenodd" d="M6.94751 -0.705513H7.10677V39.7329H6.94751V-0.705513Z" fill="#F66A43"/>
<path fill-rule="evenodd" clip-rule="evenodd" d="M7.05402 -0.705513H7.20802V39.7329H7.05402V-0.705513Z" fill="#F66A44"/>
<path fill-rule="evenodd" clip-rule="evenodd" d="M7.1535 -0.705513H7.31265V39.7329H7.1535V-0.705513Z" fill="#F66945"/>
<path fill-rule="evenodd" clip-rule="evenodd" d="M7.26056 -0.705513H7.41456V39.7329H7.26056V-0.705513Z" fill="#F56946"/>
<path fill-rule="evenodd" clip-rule="evenodd" d="M7.36066 -0.705513H7.51991V39.7329H7.36066V-0.705513Z" fill="#F56846"/>
<path fill-rule="evenodd" clip-rule="evenodd" d="M7.46771 -0.705513H7.6216V39.7329H7.46771V-0.705513Z" fill="#F56847"/>
<path fill-rule="evenodd" clip-rule="evenodd" d="M7.57306 -0.705513H7.72706V39.7329H7.57306V-0.705513Z" fill="#F56748"/>
<path fill-rule="evenodd" clip-rule="evenodd" d="M7.67487 -0.705513H7.82876V39.7329H7.67487V-0.705513Z" fill="#F56749"/>
<path fill-rule="evenodd" clip-rule="evenodd" d="M7.78021 -0.705513H7.93422V39.7329H7.78021V-0.705513Z" fill="#F56649"/>
<path fill-rule="evenodd" clip-rule="evenodd" d="M7.88141 -0.705513H8.03541V39.7329H7.88141V-0.705513Z" fill="#F5664A"/>
<path fill-rule="evenodd" clip-rule="evenodd" d="M7.98853 -0.705513H8.14242V39.7329H7.98853V-0.705513Z" fill="#F4654B"/>
<path fill-rule="evenodd" clip-rule="evenodd" d="M8.08856 -0.705513H8.24782V39.7329H8.08856V-0.705513Z" fill="#F4654C"/>
<path fill-rule="evenodd" clip-rule="evenodd" d="M8.19562 -0.705513H8.34962V39.7329H8.19562V-0.705513Z" fill="#F4654C"/>
<path fill-rule="evenodd" clip-rule="evenodd" d="M8.2951 -0.705513H8.45425V39.7329H8.2951V-0.705513Z" fill="#F4644D"/>
<path fill-rule="evenodd" clip-rule="evenodd" d="M8.40161 -0.705513H8.55561V39.7329H8.40161V-0.705513Z" fill="#F4644E"/>
<path fill-rule="evenodd" clip-rule="evenodd" d="M8.50226 -0.705513H8.66151V39.7329H8.50226V-0.705513Z" fill="#F4634F"/>
<path fill-rule="evenodd" clip-rule="evenodd" d="M8.60876 -0.705513H8.76266V39.7329H8.60876V-0.705513Z" fill="#F4634F"/>
<path fill-rule="evenodd" clip-rule="evenodd" d="M8.71466 -0.705513H8.86866V39.7329H8.71466V-0.705513Z" fill="#F36250"/>
<path fill-rule="evenodd" clip-rule="evenodd" d="M8.81592 -0.705513H8.96981V39.7329H8.81592V-0.705513Z" fill="#F36251"/>
<path fill-rule="evenodd" clip-rule="evenodd" d="M8.92181 -0.705513H9.07571V39.7329H8.92181V-0.705513Z" fill="#F36152"/>
<path fill-rule="evenodd" clip-rule="evenodd" d="M9.02307 -0.705513H9.17707V39.7329H9.02307V-0.705513Z" fill="#F36153"/>
<path fill-rule="evenodd" clip-rule="evenodd" d="M9.12897 -0.705513H9.28286V39.7329H9.12897V-0.705513Z" fill="#F36053"/>
<path fill-rule="evenodd" clip-rule="evenodd" d="M9.229 -0.705513H9.38826V39.7329H9.229V-0.705513Z" fill="#F36054"/>
<path fill-rule="evenodd" clip-rule="evenodd" d="M9.33612 -0.705513H9.49012V39.7329H9.33612V-0.705513Z" fill="#F35F55"/>
<path fill-rule="evenodd" clip-rule="evenodd" d="M9.43616 -0.705513H9.5953V39.7329H9.43616V-0.705513Z" fill="#F35F56"/>
<path fill-rule="evenodd" clip-rule="evenodd" d="M9.54327 -0.705513H9.69727V39.7329H9.54327V-0.705513Z" fill="#F25E56"/>
<path fill-rule="evenodd" clip-rule="evenodd" d="M9.64331 -0.705513H9.80257V39.7329H9.64331V-0.705513Z" fill="#F25E57"/>
<path fill-rule="evenodd" clip-rule="evenodd" d="M9.74982 -0.705513H9.90371V39.7329H9.74982V-0.705513Z" fill="#F25D58"/>
<path fill-rule="evenodd" clip-rule="evenodd" d="M9.85046 -0.705513H10.0097V39.7329H9.85046V-0.705513Z" fill="#F25D59"/>
<path fill-rule="evenodd" clip-rule="evenodd" d="M9.95697 -0.705513H10.111V39.7329H9.95697V-0.705513Z" fill="#F25C59"/>
<path fill-rule="evenodd" clip-rule="evenodd" d="M10.0629 -0.705513H10.2168V39.7329H10.0629V-0.705513Z" fill="#F25C5A"/>
<path fill-rule="evenodd" clip-rule="evenodd" d="M10.1635 -0.705513H10.3175V39.7329H10.1635V-0.705513Z" fill="#F25B5B"/>
<path fill-rule="evenodd" clip-rule="evenodd" d="M10.27 -0.705513H10.4239V39.7329H10.27V-0.705513Z" fill="#F15B5C"/>
<path fill-rule="evenodd" clip-rule="evenodd" d="M10.3707 -0.705513H10.5246V39.7329H10.3707V-0.705513Z" fill="#F15B5C"/>
<path fill-rule="evenodd" clip-rule="evenodd" d="M10.4772 -0.705513H10.6312V39.7329H10.4772V-0.705513Z" fill="#F15A5D"/>
<path fill-rule="evenodd" clip-rule="evenodd" d="M10.5778 -0.705513H10.737V39.7329H10.5778V-0.705513Z" fill="#F15A5E"/>
<path fill-rule="evenodd" clip-rule="evenodd" d="M10.6843 -0.705513H10.8382V39.7329H10.6843V-0.705513Z" fill="#F1595F"/>
<path fill-rule="evenodd" clip-rule="evenodd" d="M10.7849 -0.705513H10.9442V39.7329H10.7849V-0.705513Z" fill="#F1595F"/>
<path fill-rule="evenodd" clip-rule="evenodd" d="M10.8914 -0.705513H11.0453V39.7329H10.8914V-0.705513Z" fill="#F15860"/>
<path fill-rule="evenodd" clip-rule="evenodd" d="M10.9921 -0.705513H11.1513V39.7329H10.9921V-0.705513Z" fill="#F05861"/>
<path fill-rule="evenodd" clip-rule="evenodd" d="M11.0974 -0.705513H11.2514V39.7329H11.0974V-0.705513Z" fill="#F05762"/>
<path fill-rule="evenodd" clip-rule="evenodd" d="M11.1992 -0.705513H11.3584V39.7329H11.1992V-0.705513Z" fill="#F05762"/>
<path fill-rule="evenodd" clip-rule="evenodd" d="M11.3046 -0.705513H11.4586V39.7329H11.3046V-0.705513Z" fill="#F05663"/>
<path fill-rule="evenodd" clip-rule="evenodd" d="M11.4116 -0.705513H11.5655V39.7329H11.4116V-0.705513Z" fill="#F05664"/>
<path fill-rule="evenodd" clip-rule="evenodd" d="M11.5117 -0.705513H11.6656V39.7329H11.5117V-0.705513Z" fill="#F05565"/>
<path fill-rule="evenodd" clip-rule="evenodd" d="M11.6188 -0.705513H11.7728V39.7329H11.6188V-0.705513Z" fill="#F05565"/>
<path fill-rule="evenodd" clip-rule="evenodd" d="M11.7189 -0.705513H11.8729V39.7329H11.7189V-0.705513Z" fill="#EF5466"/>
<path fill-rule="evenodd" clip-rule="evenodd" d="M11.8248 -0.705513H11.9787V39.7329H11.8248V-0.705513Z" fill="#EF5467"/>
<path fill-rule="evenodd" clip-rule="evenodd" d="M11.9254 -0.705513H12.0847V39.7329H11.9254V-0.705513Z" fill="#EF5368"/>
<path fill-rule="evenodd" clip-rule="evenodd" d="M12.0319 -0.705513H12.1858V39.7329H12.0319V-0.705513Z" fill="#EF5368"/>
<path fill-rule="evenodd" clip-rule="evenodd" d="M12.1326 -0.705513H12.2918V39.7329H12.1326V-0.705513Z" fill="#EF5269"/>
<path fill-rule="evenodd" clip-rule="evenodd" d="M12.2391 -0.705513H12.3931V39.7329H12.2391V-0.705513Z" fill="#EF526A"/>
<path fill-rule="evenodd" clip-rule="evenodd" d="M12.3397 -0.705513H12.4989V39.7329H12.3397V-0.705513Z" fill="#EF526B"/>
<path fill-rule="evenodd" clip-rule="evenodd" d="M12.4462 -0.705513H12.6002V39.7329H12.4462V-0.705513Z" fill="#EF516B"/>
<path fill-rule="evenodd" clip-rule="evenodd" d="M12.5463 -0.705513H12.7055V39.7329H12.5463V-0.705513Z" fill="#EE516C"/>
<path fill-rule="evenodd" clip-rule="evenodd" d="M12.6533 -0.705513H12.8072V39.7329H12.6533V-0.705513Z" fill="#EE506D"/>
<path fill-rule="evenodd" clip-rule="evenodd" d="M12.7587 -0.705513H12.9127V39.7329H12.7587V-0.705513Z" fill="#EE506E"/>
<path fill-rule="evenodd" clip-rule="evenodd" d="M12.8593 -0.705513H13.0133V39.7329H12.8593V-0.705513Z" fill="#EE4F6E"/>
<path fill-rule="evenodd" clip-rule="evenodd" d="M12.9658 -0.705513H13.1197V39.7329H12.9658V-0.705513Z" fill="#EE4F6F"/>
<path fill-rule="evenodd" clip-rule="evenodd" d="M13.0665 -0.705513H13.2257V39.7329H13.0665V-0.705513Z" fill="#EE4E70"/>
<path fill-rule="evenodd" clip-rule="evenodd" d="M13.173 -0.705513H13.3269V39.7329H13.173V-0.705513Z" fill="#EE4E71"/>
<path fill-rule="evenodd" clip-rule="evenodd" d="M13.2748 -0.705513H13.434V39.7329H13.2748V-0.705513Z" fill="#ED4D71"/>
<path fill-rule="evenodd" clip-rule="evenodd" d="M13.3801 -0.705513H13.5341V39.7329H13.3801V-0.705513Z" fill="#ED4D72"/>
<path fill-rule="evenodd" clip-rule="evenodd" d="M13.4807 -0.705513H13.6399V39.7329H13.4807V-0.705513Z" fill="#ED4C73"/>
<path fill-rule="evenodd" clip-rule="evenodd" d="M13.5872 -0.705513H13.7411V39.7329H13.5872V-0.705513Z" fill="#ED4C74"/>
<path fill-rule="evenodd" clip-rule="evenodd" d="M13.6879 -0.705513H13.8471V39.7329H13.6879V-0.705513Z" fill="#ED4B74"/>
<path fill-rule="evenodd" clip-rule="evenodd" d="M13.7938 -0.705513H13.9477V39.7329H13.7938V-0.705513Z" fill="#ED4B75"/>
<path fill-rule="evenodd" clip-rule="evenodd" d="M13.9003 -0.705513H14.0543V39.7329H13.9003V-0.705513Z" fill="#ED4A76"/>
<path fill-rule="evenodd" clip-rule="evenodd" d="M14.0009 -0.705513H14.1549V39.7329H14.0009V-0.705513Z" fill="#EC4A77"/>
<path fill-rule="evenodd" clip-rule="evenodd" d="M14.1074 -0.705513H14.2613V39.7329H14.1074V-0.705513Z" fill="#EC4977"/>
<path fill-rule="evenodd" clip-rule="evenodd" d="M14.2081 -0.705513H14.3621V39.7329H14.2081V-0.705513Z" fill="#EC4978"/>
<path fill-rule="evenodd" clip-rule="evenodd" d="M14.3146 -0.705513H14.4685V39.7329H14.3146V-0.705513Z" fill="#EC4979"/>
<path fill-rule="evenodd" clip-rule="evenodd" d="M14.4152 -0.705513H14.5745V39.7329H14.4152V-0.705513Z" fill="#EC487A"/>
<path fill-rule="evenodd" clip-rule="evenodd" d="M14.5217 -0.705513H14.6757V39.7329H14.5217V-0.705513Z" fill="#EC487A"/>
<path fill-rule="evenodd" clip-rule="evenodd" d="M14.6218 -0.705513H14.781V39.7329H14.6218V-0.705513Z" fill="#EC477B"/>
<path fill-rule="evenodd" clip-rule="evenodd" d="M14.7289 -0.705513H14.8828V39.7329H14.7289V-0.705513Z" fill="#EC477C"/>
<path fill-rule="evenodd" clip-rule="evenodd" d="M14.8289 -0.705513H14.9882V39.7329H14.8289V-0.705513Z" fill="#EB467D"/>
<path fill-rule="evenodd" clip-rule="evenodd" d="M14.9348 -0.705513H15.0887V39.7329H14.9348V-0.705513Z" fill="#EB467D"/>
<path fill-rule="evenodd" clip-rule="evenodd" d="M15.0361 -0.705513H15.1953V39.7329H15.0361V-0.705513Z" fill="#EB457E"/>
<path fill-rule="evenodd" clip-rule="evenodd" d="M15.142 -0.705513H15.296V39.7329H15.142V-0.705513Z" fill="#EB457F"/>
<path fill-rule="evenodd" clip-rule="evenodd" d="M15.2485 -0.705513H15.4024V39.7329H15.2485V-0.705513Z" fill="#EB4480"/>
<path fill-rule="evenodd" clip-rule="evenodd" d="M15.3491 -0.705513H15.503V39.7329H15.3491V-0.705513Z" fill="#EB4480"/>
<path fill-rule="evenodd" clip-rule="evenodd" d="M15.4556 -0.705513H15.6095V39.7329H15.4556V-0.705513Z" fill="#EB4381"/>
<path fill-rule="evenodd" clip-rule="evenodd" d="M15.5563 -0.705513H15.7102V39.7329H15.5563V-0.705513Z" fill="#EA4382"/>
<path fill-rule="evenodd" clip-rule="evenodd" d="M15.6628 -0.705513H15.8168V39.7329H15.6628V-0.705513Z" fill="#EA4283"/>
<path fill-rule="evenodd" clip-rule="evenodd" d="M15.7634 -0.705513H15.9227V39.7329H15.7634V-0.705513Z" fill="#EA4283"/>
<path fill-rule="evenodd" clip-rule="evenodd" d="M15.8693 -0.705513H16.0232V39.7329H15.8693V-0.705513Z" fill="#EA4184"/>
<path fill-rule="evenodd" clip-rule="evenodd" d="M15.9706 -0.705513H16.1298V39.7329H15.9706V-0.705513Z" fill="#EA4185"/>
<path fill-rule="evenodd" clip-rule="evenodd" d="M16.0765 -0.705513H16.2304V39.7329H16.0765V-0.705513Z" fill="#EA4086"/>
<path fill-rule="evenodd" clip-rule="evenodd" d="M16.1777 -0.705513H16.337V39.7329H16.1777V-0.705513Z" fill="#EA4086"/>
<path fill-rule="evenodd" clip-rule="evenodd" d="M16.2836 -0.705513H16.4376V39.7329H16.2836V-0.705513Z" fill="#E94087"/>
<path fill-rule="evenodd" clip-rule="evenodd" d="M16.3837 -0.705513H16.5429V39.7329H16.3837V-0.705513Z" fill="#E93F88"/>
<path fill-rule="evenodd" clip-rule="evenodd" d="M16.4902 -0.705513H16.6441V39.7329H16.4902V-0.705513Z" fill="#E93F89"/>
<path fill-rule="evenodd" clip-rule="evenodd" d="M16.5973 -0.705513H16.7512V39.7329H16.5973V-0.705513Z" fill="#E93E89"/>
<path fill-rule="evenodd" clip-rule="evenodd" d="M16.6973 -0.705513H16.8512V39.7329H16.6973V-0.705513Z" fill="#E93E8A"/>
<path fill-rule="evenodd" clip-rule="evenodd" d="M16.8032 -0.705513H16.9572V39.7329H16.8032V-0.705513Z" fill="#E93D8B"/>
<path fill-rule="evenodd" clip-rule="evenodd" d="M16.9039 -0.705513H17.0579V39.7329H16.9039V-0.705513Z" fill="#E93D8C"/>
<path fill-rule="evenodd" clip-rule="evenodd" d="M17.0104 -0.705513H17.1643V39.7329H17.0104V-0.705513Z" fill="#E83C8C"/>
<path fill-rule="evenodd" clip-rule="evenodd" d="M17.111 -0.705513H17.2703V39.7329H17.111V-0.705513Z" fill="#E83C8D"/>
<path fill-rule="evenodd" clip-rule="evenodd" d="M17.2175 -0.705513H17.3714V39.7329H17.2175V-0.705513Z" fill="#E83B8E"/>
<path fill-rule="evenodd" clip-rule="evenodd" d="M17.3182 -0.705513H17.4774V39.7329H17.3182V-0.705513Z" fill="#E83B8F"/>
<path fill-rule="evenodd" clip-rule="evenodd" d="M17.4247 -0.705513H17.5787V39.7329H17.4247V-0.705513Z" fill="#E83A8F"/>
<path fill-rule="evenodd" clip-rule="evenodd" d="M17.5253 -0.705513H17.6846V39.7329H17.5253V-0.705513Z" fill="#E83A90"/>
<path fill-rule="evenodd" clip-rule="evenodd" d="M17.6318 -0.705513H17.7857V39.7329H17.6318V-0.705513Z" fill="#E83991"/>
<path fill-rule="evenodd" clip-rule="evenodd" d="M17.7383 -0.705513H17.8922V39.7329H17.7383V-0.705513Z" fill="#E83992"/>
<path fill-rule="evenodd" clip-rule="evenodd" d="M17.8378 -0.705513H17.9917V39.7329H17.8378V-0.705513Z" fill="#E73893"/>
<path fill-rule="evenodd" clip-rule="evenodd" d="M17.9449 -0.705513H18.0989V39.7329H17.9449V-0.705513Z" fill="#E73893"/>
<path fill-rule="evenodd" clip-rule="evenodd" d="M18.0449 -0.705513H18.1989V39.7329H18.0449V-0.705513Z" fill="#E73794"/>
<path fill-rule="evenodd" clip-rule="evenodd" d="M18.152 -0.705513H18.3059V39.7329H18.152V-0.705513Z" fill="#E73795"/>
<path fill-rule="evenodd" clip-rule="evenodd" d="M18.2521 -0.705513H18.4113V39.7329H18.2521V-0.705513Z" fill="#E73696"/>
<path fill-rule="evenodd" clip-rule="evenodd" d="M18.3591 -0.705513H18.513V39.7329H18.3591V-0.705513Z" fill="#E73696"/>
<path fill-rule="evenodd" clip-rule="evenodd" d="M18.4592 -0.705513H18.6185V39.7329H18.4592V-0.705513Z" fill="#E73697"/>
<path fill-rule="evenodd" clip-rule="evenodd" d="M18.5651 -0.705513H18.7191V39.7329H18.5651V-0.705513Z" fill="#E63598"/>
<path fill-rule="evenodd" clip-rule="evenodd" d="M18.6664 -0.705513H18.8256V39.7329H18.6664V-0.705513Z" fill="#E63599"/>
<path fill-rule="evenodd" clip-rule="evenodd" d="M18.7723 -0.705513H18.9262V39.7329H18.7723V-0.705513Z" fill="#E63499"/>
<path fill-rule="evenodd" clip-rule="evenodd" d="M18.8735 -0.705513H19.0327V39.7329H18.8735V-0.705513Z" fill="#E6349A"/>
<path fill-rule="evenodd" clip-rule="evenodd" d="M18.9794 -0.705513H19.1333V39.7329H18.9794V-0.705513Z" fill="#E6339B"/>
<path fill-rule="evenodd" clip-rule="evenodd" d="M19.0859 -0.705513H19.2399V39.7329H19.0859V-0.705513Z" fill="#E6339C"/>
<path fill-rule="evenodd" clip-rule="evenodd" d="M19.1866 -0.705513H19.3406V39.7329H19.1866V-0.705513Z" fill="#E6329C"/>
<path fill-rule="evenodd" clip-rule="evenodd" d="M19.293 -0.705513H19.4469V39.7329H19.293V-0.705513Z" fill="#E5329D"/>
<path fill-rule="evenodd" clip-rule="evenodd" d="M19.3937 -0.705513H19.5476V39.7329H19.3937V-0.705513Z" fill="#E5319E"/>
<path fill-rule="evenodd" clip-rule="evenodd" d="M19.5002 -0.705513H19.6541V39.7329H19.5002V-0.705513Z" fill="#E5319F"/>
<path fill-rule="evenodd" clip-rule="evenodd" d="M19.6008 -0.705513H19.7601V39.7329H19.6008V-0.705513Z" fill="#E5309F"/>
<path fill-rule="evenodd" clip-rule="evenodd" d="M19.7062 -0.705513H19.8602V39.7329H19.7062V-0.705513Z" fill="#E530A0"/>
<path fill-rule="evenodd" clip-rule="evenodd" d="M19.808 -0.705513H19.9672V39.7329H19.808V-0.705513Z" fill="#E52FA1"/>
<path fill-rule="evenodd" clip-rule="evenodd" d="M19.9133 -0.705513H20.0672V39.7329H19.9133V-0.705513Z" fill="#E52FA2"/>
<path fill-rule="evenodd" clip-rule="evenodd" d="M20.0151 -0.705513H20.1744V39.7329H20.0151V-0.705513Z" fill="#E52EA2"/>
<path fill-rule="evenodd" clip-rule="evenodd" d="M20.1205 -0.705513H20.2744V39.7329H20.1205V-0.705513Z" fill="#E42EA3"/>
<path fill-rule="evenodd" clip-rule="evenodd" d="M20.2223 -0.705513H20.3815V39.7329H20.2223V-0.705513Z" fill="#E42DA4"/>
<path fill-rule="evenodd" clip-rule="evenodd" d="M20.3276 -0.705513H20.4816V39.7329H20.3276V-0.705513Z" fill="#E42DA5"/>
<path fill-rule="evenodd" clip-rule="evenodd" d="M20.4341 -0.705513H20.588V39.7329H20.4341V-0.705513Z" fill="#E42DA5"/>
<path fill-rule="evenodd" clip-rule="evenodd" d="M20.5347 -0.705513H20.6886V39.7329H20.5347V-0.705513Z" fill="#E42CA6"/>
<path fill-rule="evenodd" clip-rule="evenodd" d="M20.6407 -0.705513H20.7946V39.7329H20.6407V-0.705513Z" fill="#E42CA7"/>
<path fill-rule="evenodd" clip-rule="evenodd" d="M20.7419 -0.705513H20.8958V39.7329H20.7419V-0.705513Z" fill="#E42BA8"/>
<path fill-rule="evenodd" clip-rule="evenodd" d="M20.8478 -0.705513H21.0018V39.7329H20.8478V-0.705513Z" fill="#E32BA8"/>
<path fill-rule="evenodd" clip-rule="evenodd" d="M20.949 -0.705513H21.1083V39.7329H20.949V-0.705513Z" fill="#E32AA9"/>
<path fill-rule="evenodd" clip-rule="evenodd" d="M21.0549 -0.705513H21.2088V39.7329H21.0549V-0.705513Z" fill="#E32AAA"/>
<path fill-rule="evenodd" clip-rule="evenodd" d="M21.1556 -0.705513H21.3148V39.7329H21.1556V-0.705513Z" fill="#E329AB"/>
<path fill-rule="evenodd" clip-rule="evenodd" d="M21.2621 -0.705513H21.416V39.7329H21.2621V-0.705513Z" fill="#E329AB"/>
<path fill-rule="evenodd" clip-rule="evenodd" d="M21.3622 -0.705513H21.5214V39.7329H21.3622V-0.705513Z" fill="#E328AC"/>
<path fill-rule="evenodd" clip-rule="evenodd" d="M21.4692 -0.705513H21.6232V39.7329H21.4692V-0.705513Z" fill="#E328AD"/>
<path fill-rule="evenodd" clip-rule="evenodd" d="M21.5705 -0.705513H21.7298V39.7329H21.5705V-0.705513Z" fill="#E227AE"/>
<path fill-rule="evenodd" clip-rule="evenodd" d="M21.6752 -0.705513H21.8291V39.7329H21.6752V-0.705513Z" fill="#E227AE"/>
<path fill-rule="evenodd" clip-rule="evenodd" d="M21.7817 -0.705513H21.9356V39.7329H21.7817V-0.705513Z" fill="#E226AF"/>
<path fill-rule="evenodd" clip-rule="evenodd" d="M21.8835 -0.705513H22.0374V39.7329H21.8835V-0.705513Z" fill="#E226B0"/>
<path fill-rule="evenodd" clip-rule="evenodd" d="M21.9888 -0.705513H22.1428V39.7329H21.9888V-0.705513Z" fill="#E225B1"/>
<path fill-rule="evenodd" clip-rule="evenodd" d="M22.0895 -0.705513H22.2487V39.7329H22.0895V-0.705513Z" fill="#E225B1"/>
<path fill-rule="evenodd" clip-rule="evenodd" d="M22.196 -0.705513H22.3499V39.7329H22.196V-0.705513Z" fill="#E224B2"/>
<path fill-rule="evenodd" clip-rule="evenodd" d="M22.2966 -0.705513H22.4559V39.7329H22.2966V-0.705513Z" fill="#E124B3"/>
<path fill-rule="evenodd" clip-rule="evenodd" d="M22.4025 -0.705513H22.5564V39.7329H22.4025V-0.705513Z" fill="#E124B4"/>
<path fill-rule="evenodd" clip-rule="evenodd" d="M22.5038 -0.705513H22.663V39.7329H22.5038V-0.705513Z" fill="#E123B4"/>
<path fill-rule="evenodd" clip-rule="evenodd" d="M22.6103 -0.705513H22.7643V39.7329H22.6103V-0.705513Z" fill="#E123B5"/>
<path fill-rule="evenodd" clip-rule="evenodd" d="M22.7109 -0.705513H22.8702V39.7329H22.7109V-0.705513Z" fill="#E122B6"/>
<path fill-rule="evenodd" clip-rule="evenodd" d="M22.8168 -0.705513H22.9707V39.7329H22.8168V-0.705513Z" fill="#E122B7"/>
<path fill-rule="evenodd" clip-rule="evenodd" d="M22.9233 -0.705513H23.0773V39.7329H22.9233V-0.705513Z" fill="#E121B7"/>
<path fill-rule="evenodd" clip-rule="evenodd" d="M23.024 -0.705513H23.1779V39.7329H23.024V-0.705513Z" fill="#E121B8"/>
<path fill-rule="evenodd" clip-rule="evenodd" d="M23.1305 -0.705513H23.2845V39.7329H23.1305V-0.705513Z" fill="#E020B9"/>
<path fill-rule="evenodd" clip-rule="evenodd" d="M23.2305 -0.705513H23.3845V39.7329H23.2305V-0.705513Z" fill="#E020BA"/>
<path fill-rule="evenodd" clip-rule="evenodd" d="M23.3365 -0.705513H23.4904V39.7329H23.3365V-0.705513Z" fill="#E01FBA"/>
<path fill-rule="evenodd" clip-rule="evenodd" d="M23.4377 -0.705513H23.5969V39.7329H23.4377V-0.705513Z" fill="#E01FBB"/>
<path fill-rule="evenodd" clip-rule="evenodd" d="M23.5436 -0.705513H23.6975V39.7329H23.5436V-0.705513Z" fill="#E01EBC"/>
<path fill-rule="evenodd" clip-rule="evenodd" d="M23.6448 -0.705513H23.8041V39.7329H23.6448V-0.705513Z" fill="#E01EBD"/>
<path fill-rule="evenodd" clip-rule="evenodd" d="M23.7507 -0.705513H23.9047V39.7329H23.7507V-0.705513Z" fill="#E01DBD"/>
<path fill-rule="evenodd" clip-rule="evenodd" d="M23.852 -0.705513H24.0112V39.7329H23.852V-0.705513Z" fill="#DF1DBE"/>
<path fill-rule="evenodd" clip-rule="evenodd" d="M23.9579 -0.705513H24.1118V39.7329H23.9579V-0.705513Z" fill="#DF1CBF"/>
<path fill-rule="evenodd" clip-rule="evenodd" d="M24.0591 -0.705513H24.2184V39.7329H24.0591V-0.705513Z" fill="#DF1CC0"/>
<path fill-rule="evenodd" clip-rule="evenodd" d="M24.165 -0.705513H24.3189V39.7329H24.165V-0.705513Z" fill="#DF1BC0"/>
<path fill-rule="evenodd" clip-rule="evenodd" d="M24.2709 -0.705513H24.4249V39.7329H24.2709V-0.705513Z" fill="#DF1BC1"/>
<path fill-rule="evenodd" clip-rule="evenodd" d="M24.3722 -0.705513H24.5262V39.7329H24.3722V-0.705513Z" fill="#DF1AC2"/>
<path fill-rule="evenodd" clip-rule="evenodd" d="M24.4781 -0.705513H24.632V39.7329H24.4781V-0.705513Z" fill="#DF1AC3"/>
<path fill-rule="evenodd" clip-rule="evenodd" d="M24.5793 -0.705513H24.7332V39.7329H24.5793V-0.705513Z" fill="#DE1AC3"/>
<path fill-rule="evenodd" clip-rule="evenodd" d="M24.6852 -0.705513H24.8391V39.7329H24.6852V-0.705513Z" fill="#DE19C4"/>
<path fill-rule="evenodd" clip-rule="evenodd" d="M24.7864 -0.705513H24.9457V39.7329H24.7864V-0.705513Z" fill="#DE19C5"/>
<path fill-rule="evenodd" clip-rule="evenodd" d="M24.8924 -0.705513H25.0464V39.7329H24.8924V-0.705513Z" fill="#DE18C6"/>
<path fill-rule="evenodd" clip-rule="evenodd" d="M24.9936 -0.705513H25.1528V39.7329H24.9936V-0.705513Z" fill="#DE18C6"/>
<path fill-rule="evenodd" clip-rule="evenodd" d="M25.0995 -0.705513H25.2534V39.7329H25.0995V-0.705513Z" fill="#DE17C7"/>
<path fill-rule="evenodd" clip-rule="evenodd" d="M25.2007 -0.705513H25.36V39.7329H25.2007V-0.705513Z" fill="#DE17C8"/>
<path fill-rule="evenodd" clip-rule="evenodd" d="M25.3061 -0.705513H25.46V39.7329H25.3061V-0.705513Z" fill="#DE16C9"/>
<path fill-rule="evenodd" clip-rule="evenodd" d="M25.4079 -0.705513H25.5672V39.7329H25.4079V-0.705513Z" fill="#DD16C9"/>
<path fill-rule="evenodd" clip-rule="evenodd" d="M25.5132 -0.705513H25.6672V39.7329H25.5132V-0.705513Z" fill="#DD15CA"/>
<path fill-rule="evenodd" clip-rule="evenodd" d="M25.6191 -0.705513H25.773V39.7329H25.6191V-0.705513Z" fill="#DD15CB"/>
<path fill-rule="evenodd" clip-rule="evenodd" d="M25.7204 -0.705513H25.8743V39.7329H25.7204V-0.705513Z" fill="#DD14CC"/>
<path fill-rule="evenodd" clip-rule="evenodd" d="M25.8263 -0.705513H25.9803V39.7329H25.8263V-0.705513Z" fill="#DD14CC"/>
<path fill-rule="evenodd" clip-rule="evenodd" d="M25.9275 -0.705513H26.0814V39.7329H25.9275V-0.705513Z" fill="#DD13CD"/>
<path fill-rule="evenodd" clip-rule="evenodd" d="M26.0334 -0.705513H26.1874V39.7329H26.0334V-0.705513Z" fill="#DD13CE"/>
<path fill-rule="evenodd" clip-rule="evenodd" d="M26.1346 -0.705513H26.2939V39.7329H26.1346V-0.705513Z" fill="#DC12CF"/>
<path fill-rule="evenodd" clip-rule="evenodd" d="M26.2405 -0.705513H26.3944V39.7329H26.2405V-0.705513Z" fill="#DC12CF"/>
<path fill-rule="evenodd" clip-rule="evenodd" d="M26.3412 -0.705513H26.5004V39.7329H26.3412V-0.705513Z" fill="#DC11D0"/>
<path fill-rule="evenodd" clip-rule="evenodd" d="M26.4477 -0.705513H26.5485V39.7329H26.4477V-0.705513Z" fill="#DC11D1"/>
</g>
</svg>
