<svg width="144" height="144" viewBox="0 0 144 144" fill="none" xmlns="http://www.w3.org/2000/svg">
<g clip-path="url(#clip0_8509_3890)">
<path d="M63.4153 103.332C80.802 107.99 98.6733 97.6724 103.332 80.2857C107.991 62.8991 97.6727 45.0278 80.2861 40.369C62.8994 35.7103 45.0281 46.0283 40.3694 63.4149C35.7107 80.8016 46.0287 98.6729 63.4153 103.332Z" stroke="#A795F3" stroke-width="1.80885" stroke-linecap="round" stroke-linejoin="round"/>
<path d="M40.3682 63.415L103.331 80.2859" stroke="#A795F3" stroke-width="1.80885" stroke-linecap="round" stroke-linejoin="round"/>
<path d="M80.2842 40.3688C85.8486 51.0994 87.326 63.486 84.4413 75.2243C81.0704 86.8323 73.5977 96.8207 63.4135 103.331C57.849 92.6008 56.3717 80.2143 59.2563 68.4759C62.6273 56.8679 70.0999 46.8796 80.2842 40.3688Z" stroke="#A795F3" stroke-width="1.80885" stroke-linecap="round" stroke-linejoin="round"/>
</g>
<path d="M76.3434 136.185C75.7467 136.226 75.229 136.151 74.7902 135.959C74.3419 135.767 73.9941 135.491 73.7468 135.131C73.4899 134.772 73.3462 134.371 73.3156 133.928C73.2751 133.341 73.4148 132.843 73.7347 132.434C74.0457 132.035 74.4804 131.749 75.039 131.575C74.3902 131.562 73.8497 131.367 73.4176 130.991C72.9855 130.615 72.7455 130.08 72.6977 129.387C72.6592 128.829 72.759 128.314 72.9973 127.843C73.2356 127.372 73.596 126.99 74.0785 126.695C74.5617 126.411 75.1305 126.246 75.785 126.2C76.3721 126.16 76.9183 126.229 77.4238 126.406C77.9299 126.594 78.3808 126.892 78.7764 127.299L78.0332 128.091C77.693 127.785 77.354 127.567 77.0161 127.435C76.6686 127.305 76.2976 127.253 75.903 127.28C75.2967 127.322 74.8319 127.523 74.5087 127.884C74.1861 128.254 74.0447 128.728 74.0846 129.306C74.1284 129.941 74.3229 130.377 74.6681 130.615C75.0132 130.852 75.4986 130.949 76.1242 130.906L76.846 130.856L76.7579 131.892L76.2671 131.926C75.7666 131.96 75.3631 132.138 75.0564 132.459C74.7402 132.781 74.6006 133.211 74.6378 133.75C74.669 134.202 74.838 134.548 75.1446 134.788C75.452 135.038 75.851 135.146 76.3419 135.112C76.7172 135.086 77.059 134.995 77.3674 134.838C77.666 134.682 77.9684 134.439 78.2743 134.108L79.0221 134.854C78.2565 135.671 77.3636 136.115 76.3434 136.185Z" fill="#A795F3"/>
<path d="M86.7996 134.585C86.2366 134.719 85.7171 134.724 85.241 134.6C84.7557 134.478 84.3486 134.248 84.02 133.909C83.6936 133.581 83.4722 133.172 83.3557 132.684C83.2192 132.112 83.2195 131.532 83.3569 130.944C83.4849 130.358 83.7435 129.696 84.1328 128.958C84.5222 128.221 85.1312 127.178 85.96 125.829L81.7232 126.84L81.6194 125.72L87.1793 124.393L87.4245 125.421C86.4783 127.025 85.8141 128.19 85.4319 128.916C85.052 129.651 84.8032 130.271 84.6854 130.775C84.5677 131.279 84.5704 131.79 84.6936 132.306C84.81 132.794 85.0414 133.14 85.3879 133.345C85.7366 133.559 86.1455 133.611 86.6147 133.499C86.9994 133.407 87.3182 133.246 87.571 133.017C87.8239 132.789 88.0708 132.452 88.3119 132.008L89.3177 132.482C89.0472 133.052 88.7053 133.511 88.2921 133.857C87.8789 134.204 87.3814 134.446 86.7996 134.585Z" fill="#A795F3"/>
<path d="M96.9366 131.262C95.9501 131.679 95.041 131.597 94.2093 131.016C93.3725 130.448 92.6388 129.417 92.0083 127.924C91.3777 126.431 91.1487 125.182 91.3213 124.177C91.4849 123.176 92.06 122.467 93.0465 122.051C94.0329 121.634 94.9465 121.714 95.7871 122.291C96.6188 122.872 97.3499 123.909 97.9804 125.402C98.611 126.895 98.8425 128.138 98.6751 129.13C98.5026 130.135 97.9231 130.846 96.9366 131.262ZM96.5256 130.289C97.1033 130.045 97.4142 129.579 97.4584 128.89C97.4937 128.205 97.2411 127.222 96.7007 125.942C96.1602 124.663 95.6303 123.792 95.1108 123.331C94.5862 122.882 94.0351 122.78 93.4574 123.024C92.8887 123.264 92.5822 123.728 92.538 124.417C92.4975 125.115 92.7476 126.104 93.288 127.384C93.8247 128.655 94.3554 129.514 94.8799 129.963C95.4083 130.421 95.9568 130.529 96.5256 130.289Z" fill="#A795F3"/>
<path d="M106.36 126.331C105.871 126.641 105.381 126.815 104.891 126.851C104.392 126.893 103.932 126.808 103.512 126.595C103.096 126.39 102.754 126.076 102.486 125.652C102.17 125.155 101.982 124.606 101.921 124.005C101.852 123.409 101.882 122.699 102.011 121.875C102.139 121.051 102.377 119.867 102.723 118.323L99.0439 120.655L98.5818 119.628L103.41 116.568L103.975 117.46C103.601 119.285 103.351 120.603 103.226 121.414C103.105 122.232 103.071 122.899 103.123 123.414C103.176 123.929 103.344 124.411 103.628 124.859C103.896 125.283 104.228 125.535 104.622 125.617C105.021 125.706 105.425 125.622 105.832 125.364C106.166 125.152 106.416 124.897 106.581 124.598C106.745 124.3 106.87 123.901 106.953 123.402L108.059 123.524C107.988 124.152 107.813 124.696 107.535 125.158C107.257 125.62 106.865 126.011 106.36 126.331Z" fill="#A795F3"/>
<path d="M129.657 76.4361C128.991 76.427 128.404 76.279 127.897 75.9922C127.399 75.7152 127.009 75.3094 126.727 74.7749C126.455 74.2501 126.323 73.6212 126.333 72.8881C126.349 71.7788 126.664 70.9244 127.281 70.3251C127.906 69.7355 128.73 69.4478 129.753 69.4619L136.524 69.5552L136.505 70.9298L129.835 70.8379C129.063 70.8272 128.482 70.9929 128.092 71.3348C127.701 71.6768 127.501 72.1999 127.491 72.904C127.481 73.6179 127.662 74.151 128.033 74.5034C128.414 74.856 128.996 75.0377 129.777 75.0485L136.447 75.1404L136.428 76.5295L129.657 76.4361Z" fill="#A795F3"/>
<path d="M135.91 62.0295C136.01 62.6875 136.001 63.2647 135.882 63.7611C135.772 64.2561 135.555 64.7528 135.231 65.2512L134.287 64.6341C134.526 64.217 134.685 63.8171 134.763 63.4343C134.852 63.0596 134.865 62.6672 134.803 62.2571C134.724 61.7421 134.54 61.336 134.251 61.0386C133.961 60.7412 133.588 60.6275 133.13 60.6974C132.844 60.7411 132.609 60.8355 132.427 60.9805C132.253 61.1241 132.109 61.3608 131.993 61.6908C131.879 62.0302 131.777 62.5094 131.686 63.1284C131.59 63.7774 131.464 64.3237 131.307 64.7673C131.15 65.2108 130.895 65.5865 130.542 65.8941C130.2 66.2099 129.733 66.4129 129.142 66.5032C128.57 66.5906 128.043 66.5248 127.56 66.3057C127.079 66.0961 126.674 65.7433 126.345 65.2471C126.016 64.7604 125.797 64.1547 125.686 63.43C125.478 62.0662 125.732 60.8856 126.448 59.8882L127.392 60.5053C127.128 60.9553 126.942 61.3985 126.833 61.8348C126.734 62.2696 126.723 62.7398 126.8 63.2452C126.893 63.8556 127.118 64.3384 127.475 64.6938C127.841 65.0477 128.311 65.181 128.883 65.0936C129.207 65.0441 129.465 64.9413 129.656 64.7853C129.856 64.6278 130.019 64.3834 130.144 64.052C130.27 63.7301 130.376 63.27 130.46 62.6716C130.611 61.6141 130.865 60.8189 131.223 60.2861C131.58 59.7532 132.126 59.4307 132.861 59.3186C133.357 59.2428 133.82 59.3039 134.25 59.5016C134.682 59.7089 135.043 60.0295 135.334 60.4633C135.626 60.9066 135.818 61.4287 135.91 62.0295Z" fill="#A795F3"/>
<path d="M118.992 36.555L118.058 35.3201L114.688 37.8692L113.859 36.7728L121.81 30.7579L123.39 32.8468C124.141 33.8393 124.52 34.7321 124.527 35.525C124.54 36.3257 124.174 37.0083 123.427 37.5729C122.873 37.9919 122.316 38.19 121.754 38.1672C121.192 38.1445 120.605 37.9115 119.991 37.4683L118.049 42.3125L117.063 41.0083L118.992 36.555ZM119.739 35.7907C120.175 36.3678 120.619 36.7152 121.071 36.8329C121.531 36.9449 122.022 36.803 122.546 36.4072C123.038 36.0347 123.278 35.617 123.267 35.154C123.269 34.6928 123.022 34.1353 122.528 33.4813L121.786 32.5003L118.9 34.6828L119.739 35.7907Z" fill="#A795F3"/>
<path d="M118.438 26.9467L117.567 27.636L114.76 24.9803L112.522 27.3452L114.961 29.6528L114.205 30.4515L111.766 28.1439L109.419 30.6244L112.425 33.4691L111.669 34.2679L107.664 30.4783L114.518 23.2366L118.438 26.9467Z" fill="#A795F3"/>
<path d="M105.53 28.6238L104.005 27.5975L105.371 18.3124C105.048 18.8969 104.739 19.4333 104.445 19.9216C104.165 20.4074 103.801 20.9823 103.354 21.6466L100.8 25.4399L99.7317 24.7207L105.299 16.4498L106.788 17.4518L105.45 26.7732C105.566 26.549 105.779 26.1633 106.089 25.6162C106.399 25.0691 106.7 24.5794 106.991 24.1473L110.029 19.6337L111.098 20.3529L105.53 28.6238Z" fill="#A795F3"/>
<path d="M88.7791 18.7571L88.7002 16.1442L85.052 15.1666L83.6772 17.39L82.3354 17.0305L88.005 8.22755L89.6823 8.67699L90.1769 19.1316L88.7791 18.7571ZM85.6619 14.1765L88.6671 14.9817L88.5198 9.54902L85.6619 14.1765Z" fill="#A795F3"/>
<path d="M77.5968 7.46804L76.7523 16.1966L80.8285 16.591L80.5544 17.7711L75.2683 17.2597L76.2284 7.33565L77.5968 7.46804Z" fill="#A795F3"/>
<path d="M67.2616 7.37662C68.4935 7.29162 69.4643 7.48573 70.1738 7.95895C70.8827 8.42255 71.2724 9.16444 71.3428 10.1846C71.4178 11.2722 71.1223 12.1048 70.4563 12.6827C69.7902 13.2605 68.8749 13.5896 67.7104 13.6699L66.4544 13.7566L66.7065 17.409L65.335 17.5036L64.6486 7.55693L67.2616 7.37662ZM67.5779 12.5912C68.3768 12.5361 68.9725 12.3402 69.3651 12.0037C69.7673 11.6665 69.9408 11.0985 69.8857 10.2997C69.8366 9.58747 69.5893 9.08718 69.1439 8.7988C68.7081 8.50975 68.1005 8.39212 67.3209 8.44592L66.0938 8.53059L66.3797 12.6739L67.5779 12.5912Z" fill="#A795F3"/>
<path d="M21.8111 30.6501C22.185 30.1833 22.5588 29.8399 22.9325 29.6201C23.3123 29.3927 23.7704 29.2219 24.3068 29.1077L24.5255 30.2468C23.7616 30.4137 23.1686 30.7607 22.7465 31.2879C22.2279 31.9355 22.0574 32.6578 22.2348 33.4549C22.4183 34.2445 23.0598 35.0794 24.1592 35.9598C25.2286 36.816 26.1761 37.2533 27.0017 37.2718C27.8198 37.2842 28.4881 36.9666 29.0067 36.3189C29.272 35.9876 29.4477 35.6524 29.5337 35.3135C29.6197 34.9745 29.6726 34.5843 29.6924 34.1429L30.7952 34.1547C30.8508 34.5946 30.8107 35.0692 30.6748 35.5784C30.539 36.0876 30.2752 36.5869 29.8832 37.0764C29.3767 37.709 28.7701 38.1501 28.0634 38.3999C27.3552 38.6362 26.5883 38.6524 25.7627 38.4487C24.9357 38.2314 24.0967 37.782 23.2457 37.1007C22.3948 36.4193 21.7826 35.6944 21.4093 34.9258C21.0284 34.1512 20.8796 33.3956 20.9628 32.6589C21.046 31.9222 21.3287 31.2526 21.8111 30.6501Z" fill="#A795F3"/>
<path d="M127.782 104.259L119.08 99.3928L119.751 98.1929L128.453 103.059L127.782 104.259Z" fill="#A795F3"/>
<path d="M53.8559 135.159C53.2502 134.997 52.752 134.769 52.3615 134.474C51.9592 134.187 51.5877 133.802 51.2471 133.322L52.2471 132.721C52.517 133.093 52.7941 133.382 53.0785 133.588C53.3628 133.794 53.7193 133.954 54.148 134.069C54.6419 134.201 55.1347 134.189 55.6264 134.031C56.1063 133.88 56.5554 133.546 56.9736 133.028C57.3894 132.521 57.7171 131.819 57.9568 130.925C58.3188 129.574 58.3645 128.527 58.0938 127.786C57.8138 127.041 57.2405 126.553 56.3739 126.321C55.6657 126.131 55.0166 126.112 54.4267 126.264L53.6477 129.171L55.353 129.628L55.2183 130.745L52.0454 129.895L53.2926 125.241C54.442 124.939 55.5665 124.936 56.666 125.231C57.9333 125.57 58.8122 126.26 59.3025 127.3C59.7835 128.338 59.8055 129.672 59.3685 131.303C59.0889 132.347 58.6628 133.191 58.0903 133.837C57.506 134.489 56.8458 134.922 56.1098 135.134C55.362 135.353 54.6107 135.362 53.8559 135.159Z" fill="#A795F3"/>
<path d="M18.7341 58.3709L18.4067 60.1792L9.35485 62.6579C10.0202 62.7196 10.6354 62.7869 11.2007 62.8598C11.7581 62.9215 12.4308 63.0237 13.2187 63.1664L17.7183 63.9811L17.4889 65.2484L7.67802 63.472L7.99772 61.7063L17.0716 59.1875C16.8196 59.1713 16.3808 59.131 15.7552 59.0668C15.1295 59.0025 14.5604 58.924 14.0478 58.8311L8.69385 57.8617L8.92331 56.5944L18.7341 58.3709Z" fill="#A795F3"/>
<path d="M121.707 94.7623L122.156 93.5092L126.51 94.7021C128.22 95.1621 129.524 95.5427 130.42 95.8438L124.147 91.3025L124.582 90.0902L132.364 90.4685C131.229 90.0613 129.938 89.5315 128.491 88.8791L124.463 87.0803L124.903 85.8544L134.009 89.9978L133.383 91.7413L125.851 91.268L132 95.5959L131.37 97.353L121.707 94.7623Z" fill="#A795F3"/>
<path d="M18.0821 81.8876L8.22602 83.393L7.42634 78.1574L8.53754 78.1487L9.10562 81.868L12.4673 81.3545L11.9757 78.1359L13.0485 77.972L13.5401 81.1906L17.8745 80.5286L18.0821 81.8876Z" fill="#A795F3"/>
<path d="M7.23178 69.9692L17.2012 70.1066L17.1823 71.4812L7.21284 71.3438L7.23178 69.9692Z" fill="#A795F3"/>
<path d="M46.2616 12.4922L49.6732 20.5707L53.4458 18.9775L53.7664 20.1459L48.8741 22.212L44.9952 13.0271L46.2616 12.4922Z" fill="#A795F3"/>
<path d="M124.8 86.2437L125.037 84.9336L129.527 85.3937C131.29 85.5659 132.638 85.7267 133.572 85.8762L126.637 82.4293L126.867 81.162L134.605 80.2542C133.418 80.0394 132.058 79.7293 130.523 79.324L126.254 78.2127L126.486 76.9312L136.15 79.5192L135.82 81.3419L128.312 82.1149L135.09 85.3716L134.757 87.2084L124.8 86.2437Z" fill="#A795F3"/>
<path d="M44.7883 24.2807L42.8125 22.5691L39.6225 24.5911L40.3272 27.1084L39.1538 27.8521L36.5172 17.7188L37.9839 16.7892L46.0106 23.506L44.7883 24.2807ZM39.3071 23.4718L41.9349 21.8062L37.8381 18.235L39.3071 23.4718Z" fill="#A795F3"/>
<path d="M14.8081 102.252L22.5772 98.1853L20.6779 94.5571L21.8158 94.1411L24.2789 98.8462L15.4457 103.47L14.8081 102.252Z" fill="#A795F3"/>
<path d="M97.9563 23.6701L96.2836 22.9087L96.1029 13.5254C95.8798 14.1552 95.6635 14.7351 95.4541 15.2651C95.2574 15.7904 94.9932 16.4174 94.6615 17.1462L92.7671 21.3081L91.5949 20.7745L95.7254 11.7L97.3585 12.4434L97.5728 21.8579C97.6504 21.6176 97.7971 21.2021 98.013 20.6114C98.2289 20.0207 98.4447 19.4883 98.6605 19.0141L100.915 14.062L102.087 14.5955L97.9563 23.6701Z" fill="#A795F3"/>
<path d="M29.3862 114.18C28.9683 113.625 28.7311 113.069 28.6748 112.511C28.6185 111.953 28.8556 111.394 29.3861 110.833C30.6857 109.46 32.292 109.678 34.2049 111.488L36.2019 113.378L29.3487 120.62L27.6355 118.999C26.7176 118.13 26.1595 117.316 25.9612 116.557C25.7558 115.792 25.9449 115.101 26.5284 114.484C26.9263 114.064 27.391 113.84 27.9225 113.811C28.447 113.776 28.9349 113.899 29.3862 114.18ZM29.0962 118.887L31.2546 116.606L30.1616 115.572C29.7411 115.174 29.3016 114.95 28.8431 114.902C28.3775 114.846 27.969 115.004 27.6176 115.376C27.2197 115.796 27.0881 116.223 27.2229 116.656C27.3507 117.082 27.7019 117.567 28.2764 118.111L29.0962 118.887ZM33.449 112.287C32.8604 111.73 32.3291 111.393 31.855 111.277C31.3739 111.154 30.9013 111.337 30.4371 111.828C29.9862 112.304 29.8119 112.79 29.9143 113.285C30.0167 113.781 30.3096 114.257 30.7931 114.715L31.9807 115.839L34.4475 113.232L33.449 112.287Z" fill="#A795F3"/>
<path d="M25.9891 41.8555L25.0922 43.4596L15.726 42.8648C16.3352 43.1392 16.8953 43.4026 17.4062 43.6551C17.9134 43.8945 18.5165 44.2095 19.2154 44.6003L23.2066 46.8319L22.5781 47.956L13.8757 43.0903L14.7514 41.5241L24.1514 42.088C23.9184 41.9909 23.5164 41.8103 22.9455 41.5464C22.3747 41.2825 21.8619 41.0234 21.4072 40.7692L16.6581 38.1138L17.2866 36.9897L25.9891 41.8555Z" fill="#A795F3"/>
<path d="M129.251 41.7606C129.559 42.3503 129.738 42.8994 129.786 43.4076C129.843 43.9114 129.799 44.4516 129.654 45.0283L128.562 44.7508C128.652 44.2788 128.672 43.8491 128.622 43.4617C128.585 43.0783 128.47 42.7029 128.277 42.3354C128.036 41.8738 127.73 41.5494 127.36 41.3621C126.989 41.1749 126.599 41.1886 126.189 41.4034C125.932 41.5376 125.741 41.703 125.616 41.8995C125.498 42.0915 125.439 42.3623 125.436 42.7119C125.439 43.07 125.497 43.5565 125.613 44.1714C125.732 44.8165 125.79 45.3742 125.786 45.8446C125.782 46.315 125.663 46.7531 125.429 47.1587C125.208 47.5685 124.832 47.9121 124.302 48.1895C123.789 48.4579 123.269 48.5668 122.742 48.5162C122.219 48.4742 121.721 48.272 121.248 47.9097C120.78 47.556 120.376 47.0543 120.036 46.4048C119.396 45.1825 119.253 43.9835 119.606 42.8075L120.699 43.0849C120.596 43.596 120.564 44.0755 120.603 44.5236C120.65 44.9672 120.792 45.4155 121.029 45.8684C121.315 46.4155 121.685 46.7991 122.138 47.0194C122.599 47.2352 123.086 47.2088 123.599 46.9404C123.89 46.7882 124.1 46.6074 124.23 46.3979C124.368 46.1839 124.443 45.8998 124.454 45.5458C124.469 45.2003 124.419 44.7309 124.304 44.1375C124.104 43.0884 124.086 42.2537 124.251 41.6336C124.417 41.0135 124.828 40.5311 125.487 40.1866C125.931 39.954 126.389 39.8613 126.86 39.9086C127.336 39.9645 127.782 40.1504 128.197 40.4663C128.618 40.7907 128.969 41.2222 129.251 41.7606Z" fill="#A795F3"/>
<path d="M35.4102 125.446C34.714 124.977 34.2189 124.4 33.925 123.714C33.6177 123.03 33.5355 122.271 33.6784 121.437C33.8132 120.597 34.1877 119.721 34.8019 118.809C35.4053 117.913 36.0705 117.244 36.7976 116.803C37.5167 116.357 38.2534 116.143 39.0079 116.163C39.7543 116.177 40.4757 116.418 41.1719 116.887C41.8682 117.356 42.37 117.932 42.6773 118.616C42.9766 119.294 43.0588 120.053 42.9239 120.892C42.781 121.726 42.4052 122.596 41.7964 123.5C41.1985 124.388 40.5372 125.06 39.8128 125.514C39.0803 125.963 38.3368 126.178 37.5824 126.158C36.8225 126.147 36.0985 125.909 35.4102 125.446ZM36.0406 124.51C36.7608 124.995 37.5042 125.1 38.2707 124.825C39.0371 124.55 39.8082 123.836 40.584 122.684C41.3544 121.539 41.72 120.564 41.6808 119.759C41.6336 118.948 41.2539 118.303 40.5416 117.823C39.0211 116.8 37.512 117.4 36.0143 119.625C34.5113 121.858 34.52 123.486 36.0406 124.51Z" fill="#A795F3"/>
<path d="M29.47 23.0364L36.121 30.4642L35.0969 31.3813L28.4458 23.9535L29.47 23.0364Z" fill="#A795F3"/>
<path d="M26.6768 102.747L25.1342 104.857L27.4127 107.87L29.8632 106.959L30.7013 108.067L20.8203 111.532L19.7727 110.147L25.8038 101.593L26.6768 102.747ZM26.3233 108.276L24.4463 105.795L21.2257 110.173L26.3233 108.276Z" fill="#A795F3"/>
<path d="M120.055 115.059L119.231 114.213L120.958 112.056L114.09 106.557L114.95 105.483L121.817 110.983L123.59 108.769L124.505 109.501L120.055 115.059Z" fill="#A795F3"/>
<path d="M45.5084 130.878L49.1413 122.896L45.414 121.2L46.0565 120.172L50.8901 122.372L46.7596 131.447L45.5084 130.878Z" fill="#A795F3"/>
<path d="M21.2757 50.9322L18.6652 50.7951L17.3898 54.3501L19.4921 55.9037L19.0229 57.2113L10.7183 50.8342L11.3047 49.1997L21.7644 49.5701L21.2757 50.9322ZM16.4534 53.6605L17.5041 50.732L12.0777 50.4302L16.4534 53.6605Z" fill="#A795F3"/>
<defs>
<clipPath id="clip0_8509_3890">
<rect width="78.2204" height="78.2204" fill="white" transform="matrix(0.965926 0.25882 -0.258818 0.965926 44.1946 23.9502)"/>
</clipPath>
</defs>
</svg>
