<svg xmlns="http://www.w3.org/2000/svg" width="16" height="16" viewBox="0 0 16 17" fill="none">
    <path fill-rule="evenodd" clip-rule="evenodd" d="M9.44922 3.55762C9.45184 3.56273 9.45443 3.56786 9.45701 3.57301L9.00985 3.79673L9.44183 3.54495L9.44922 3.55762ZM6.54727 3.55761L1.69371 11.8851C1.68842 11.8942 1.68341 11.9034 1.6787 11.9128C1.13576 12.996 1.89569 14.3337 3.13731 14.3337L12.8592 14.3337C14.0942 14.3337 14.8736 13.0099 14.3168 11.9109C14.3124 11.9022 14.3077 11.8936 14.3028 11.8851L9.44922 3.55762C8.84069 2.37012 7.1558 2.37012 6.54727 3.55761ZM8.56269 4.02044C8.32692 3.54917 7.66956 3.54917 7.43378 4.02044C7.42902 4.02996 7.42396 4.03931 7.41861 4.0485L2.56665 12.3732C2.35014 12.8263 2.68556 13.3337 3.13731 13.3337L12.8592 13.3337C13.3178 13.3337 13.6511 12.8293 13.4305 12.3743L8.57787 4.0485C8.57251 4.03931 8.56745 4.02996 8.56269 4.02044Z" fill="#CC563C" />
    <path fill-rule="evenodd" clip-rule="evenodd" d="M8 6.61328C8.27614 6.61328 8.5 6.83714 8.5 7.11328V9.55328C8.5 9.82943 8.27614 10.0533 8 10.0533C7.72386 10.0533 7.5 9.82943 7.5 9.55328V7.11328C7.5 6.83714 7.72386 6.61328 8 6.61328Z" fill="#CC563C" />
    <path d="M8 11.8867C8.27614 11.8867 8.5 11.6629 8.5 11.3867C8.5 11.1106 8.27614 10.8867 8 10.8867C7.72386 10.8867 7.5 11.1106 7.5 11.3867C7.5 11.6629 7.72386 11.8867 8 11.8867Z" fill="#CC563C" />
</svg>