<svg width="20" height="20" viewBox="0 0 20 20" fill="none" xmlns="http://www.w3.org/2000/svg">
<path d="M9.99999 1.6665C6.57499 1.6665 3.79166 4.44983 3.79166 7.87484C3.79166 11.9498 8.94166 17.7165 9.15833 17.9582C9.37499 18.1998 9.68332 18.3332 9.99999 18.3332C10.3167 18.3332 10.625 18.1998 10.8416 17.9582C11.3916 17.3498 16.2083 11.8582 16.2083 7.87484C16.2083 4.44983 13.425 1.6665 9.99999 1.6665ZM9.99999 17.0248C9.32499 16.2415 5.04166 11.2082 5.04166 7.87484C5.04166 5.1415 7.26665 2.9165 9.99999 2.9165C12.7333 2.9165 14.9583 5.1415 14.9583 7.87484C14.9583 10.6915 11.7667 15.0248 9.99999 17.0248Z" fill="#A795F3"/>
<path d="M9.99999 1.6665C6.57499 1.6665 3.79166 4.44983 3.79166 7.87484C3.79166 11.9498 8.94166 17.7165 9.15833 17.9582C9.37499 18.1998 9.68332 18.3332 9.99999 18.3332C10.3167 18.3332 10.625 18.1998 10.8416 17.9582C11.3916 17.3498 16.2083 11.8582 16.2083 7.87484C16.2083 4.44983 13.425 1.6665 9.99999 1.6665ZM7.39999 7.87484C7.39999 6.4415 8.56665 5.27484 9.99999 5.27484C11.4333 5.27484 12.6 6.4415 12.6 7.87484C12.6 9.30817 11.4333 10.4748 9.99999 10.4748C8.56665 10.4748 7.39999 9.30817 7.39999 7.87484Z" fill="#A795F3"/>
</svg>
