<svg width="21" height="20" viewBox="0 0 21 20" fill="none" xmlns="http://www.w3.org/2000/svg">
<path d="M10.5 1.6665C7.07496 1.6665 4.29163 4.44983 4.29163 7.87484C4.29163 11.9498 9.44163 17.7165 9.6583 17.9582C9.87496 18.1998 10.1833 18.3332 10.5 18.3332C10.8166 18.3332 11.125 18.1998 11.3416 17.9582C11.8916 17.3498 16.7083 11.8582 16.7083 7.87484C16.7083 4.44983 13.925 1.6665 10.5 1.6665ZM10.5 17.0248C9.82496 16.2415 5.54163 11.2082 5.54163 7.87484C5.54163 5.1415 7.76662 2.9165 10.5 2.9165C13.2333 2.9165 15.4583 5.1415 15.4583 7.87484C15.4583 10.6915 12.2666 15.0248 10.5 17.0248Z" fill="#171717"/>
<path d="M10.5 1.6665C7.07496 1.6665 4.29163 4.44983 4.29163 7.87484C4.29163 11.9498 9.44163 17.7165 9.6583 17.9582C9.87496 18.1998 10.1833 18.3332 10.5 18.3332C10.8166 18.3332 11.125 18.1998 11.3416 17.9582C11.8916 17.3498 16.7083 11.8582 16.7083 7.87484C16.7083 4.44983 13.925 1.6665 10.5 1.6665ZM7.89996 7.87484C7.89996 6.4415 9.06662 5.27484 10.5 5.27484C11.9333 5.27484 13.1 6.4415 13.1 7.87484C13.1 9.30817 11.9333 10.4748 10.5 10.4748C9.06662 10.4748 7.89996 9.30817 7.89996 7.87484Z" fill="#171717"/>
</svg>
