<svg width="20" height="20" viewBox="0 0 20 20" fill="none" xmlns="http://www.w3.org/2000/svg">
<path d="M9.99999 1.6665C5.40832 1.6665 1.66666 5.40817 1.66666 9.99984C1.66666 14.5915 5.40832 18.3332 9.99999 18.3332C14.5917 18.3332 18.3333 14.5915 18.3333 9.99984C18.3333 5.40817 14.5917 1.6665 9.99999 1.6665ZM13.8 8.60817L10.375 11.1832C10.3583 11.1915 10.3333 11.1998 10.3167 11.2165C10.2917 11.2248 10.275 11.2332 10.25 11.2415C10.175 11.2832 10.0833 11.3082 9.99999 11.3082C9.91666 11.3082 9.83332 11.2832 9.75832 11.2498C9.74165 11.2415 9.725 11.2332 9.7 11.2248C9.68334 11.2165 9.66665 11.2082 9.64998 11.1998L7.14998 9.48317C6.86665 9.29151 6.79167 8.89983 6.99167 8.6165C7.18334 8.33317 7.57498 8.25817 7.85832 8.44984L9.98333 9.90817L13.05 7.60817C13.325 7.39984 13.7167 7.45817 13.925 7.73317C14.1333 8.00817 14.075 8.39984 13.8 8.60817Z" fill="#A795F3"/>
</svg>
