<svg width="21" height="20" viewBox="0 0 21 20" fill="none" xmlns="http://www.w3.org/2000/svg">
<path d="M10.5 1.6665C5.90835 1.6665 2.16669 5.40817 2.16669 9.99984C2.16669 14.5915 5.90835 18.3332 10.5 18.3332C15.0917 18.3332 18.8334 14.5915 18.8334 9.99984C18.8334 5.40817 15.0917 1.6665 10.5 1.6665ZM14.3 8.60817L10.875 11.1832C10.8584 11.1915 10.8334 11.1998 10.8167 11.2165C10.7917 11.2248 10.775 11.2332 10.75 11.2415C10.675 11.2832 10.5834 11.3082 10.5 11.3082C10.4167 11.3082 10.3333 11.2832 10.2583 11.2498C10.2417 11.2415 10.225 11.2332 10.2 11.2248C10.1834 11.2165 10.1667 11.2082 10.15 11.1998L7.65001 9.48317C7.36668 9.29151 7.2917 8.89983 7.4917 8.6165C7.68337 8.33317 8.07501 8.25817 8.35835 8.44984L10.4834 9.90817L13.55 7.60817C13.825 7.39984 14.2167 7.45817 14.425 7.73317C14.6333 8.00817 14.575 8.39984 14.3 8.60817Z" fill="#A0A09B"/>
</svg>
