<svg width="60" height="18" viewBox="0 0 60 18" fill="none" xmlns="http://www.w3.org/2000/svg">
<path d="M16.9325 8.90805C16.9049 8.87124 16.1503 7.87737 14.7423 6.96633C14.862 6.42338 14.9172 5.94485 14.9448 5.54915C15.0092 4.6105 14.9172 4.00314 14.9172 3.97553L14.8988 3.8559L14.7791 3.83749C14.7515 3.83749 14.1442 3.73627 13.2055 3.80989C12.819 3.83749 12.3313 3.89271 11.7975 4.00314C10.8865 2.59516 9.89264 1.85896 9.85583 1.82216L9.7546 1.74854L9.65338 1.82216C9.60737 1.85896 8.6227 2.59516 7.70246 4.01234C7.15951 3.89271 6.68099 3.83749 6.28528 3.80989C5.34663 3.74547 4.73927 3.83749 4.71166 3.83749L4.58283 3.8559L4.56442 3.97553C4.55522 4.00314 4.4724 4.6105 4.53681 5.54915C4.56442 5.94485 4.61964 6.42338 4.73927 6.96633C3.31289 7.87737 2.57669 8.86203 2.54908 8.90805L2.47546 9.00927L2.54908 9.1105C2.57669 9.15651 3.32209 10.1412 4.73927 11.0614C4.62884 11.5952 4.56442 12.0829 4.53681 12.4694C4.4724 13.408 4.55522 14.0154 4.56442 14.043L4.58283 14.1719L4.71166 14.1903C4.73007 14.1903 5.06135 14.2363 5.5951 14.2363C5.79755 14.2363 6.02761 14.2271 6.28528 14.2087C6.68099 14.1811 7.16872 14.1258 7.70246 14.0062C8.6227 15.4234 9.60737 16.1688 9.65338 16.2056L9.7546 16.2884L9.85583 16.2056C9.90184 16.178 10.8865 15.4234 11.7975 14.0154C12.3313 14.1258 12.8098 14.1903 13.2055 14.2179C13.4632 14.2363 13.6933 14.2455 13.8957 14.2455C14.4295 14.2455 14.7607 14.1995 14.7791 14.1995L14.908 14.1811L14.9264 14.0522C14.9264 14.0246 15.0184 13.4172 14.954 12.4786C14.9264 12.0829 14.8712 11.6044 14.7515 11.0706C16.1687 10.1596 16.9233 9.16571 16.9509 9.1289L17.0337 9.02768L16.9325 8.90805ZM14.0429 9.00927C14.1902 8.69639 14.319 8.38351 14.4202 8.07982C14.9724 8.46633 15.3405 8.82522 15.5061 9.00007C15.3405 9.17492 14.9724 9.54302 14.411 9.92952C14.319 9.63504 14.1902 9.32216 14.0429 9.00927ZM13.2055 4.14117C13.8681 4.09516 14.365 4.13197 14.5859 4.15038C14.6411 4.67492 14.7607 6.75467 13.7025 8.93565C13.5644 9.21173 13.4172 9.4878 13.2607 9.73627C13.1411 9.92032 13.0215 10.1044 12.8926 10.27L12.8558 10.3252L12.865 10.3988C12.9939 11.2179 12.9295 11.8988 12.8926 12.1565C12.635 12.1933 11.9632 12.2577 11.135 12.1289L11.0614 12.1197L11.0061 12.1657C10.8681 12.2669 10.7117 12.3774 10.5552 12.4786C10.408 12.4142 10.2515 12.3498 10.1043 12.2669C10.408 12.0829 10.7025 11.8804 10.9785 11.6596C11.7699 11.8528 12.3405 11.7976 12.3681 11.7976L12.5061 11.7884L12.5153 11.6504C12.5153 11.6228 12.5706 11.0522 12.3773 10.27C12.6718 9.90191 12.9295 9.50621 13.1595 9.1013C13.3068 8.83443 13.4448 8.54915 13.5644 8.26387C14.3466 6.36817 14.1902 4.80375 14.181 4.73013L14.1718 4.59209L14.0337 4.57369C13.9693 4.56449 12.4509 4.41725 10.592 5.16265C10.4448 5.07062 10.2883 4.9786 10.1319 4.89577C11.319 4.37123 12.4417 4.19639 13.2055 4.14117ZM13.2055 10.4265C13.2607 10.3528 13.316 10.2792 13.362 10.2056C13.8589 11.5584 13.8681 12.7271 13.8589 13.1228C13.4632 13.1412 12.3037 13.1228 10.9417 12.635C11.0153 12.589 11.0798 12.543 11.1442 12.4878C12.2301 12.6442 13.0307 12.4878 13.0675 12.4878L13.1779 12.4694L13.1963 12.359C13.2147 12.313 13.362 11.5031 13.2055 10.4265ZM7.40798 10.0952C7.13191 9.75467 6.88344 9.38657 6.66258 9.00927C6.87424 8.63197 7.1227 8.26387 7.39878 7.92338L7.45399 7.85897L7.43559 7.77614C7.29755 7.2332 7.27914 6.79148 7.28835 6.57062C7.50921 6.57062 7.95092 6.57983 8.49387 6.71786L8.57669 6.73627L8.64111 6.68105C8.9908 6.40498 9.3589 6.14731 9.7454 5.92645C10.1319 6.14731 10.5 6.39578 10.8405 6.67185L10.9049 6.72706L10.9877 6.70866C11.5307 6.57062 11.9724 6.55222 12.1841 6.55222C12.1841 6.77308 12.1749 7.21479 12.0368 7.75774L12.0184 7.84056L12.0736 7.90498C12.3497 8.24547 12.5982 8.61357 12.819 9.00007C12.5982 9.38657 12.3497 9.75467 12.0736 10.1044L12.0184 10.1688L12.0368 10.2516C12.1749 10.7853 12.1933 11.2363 12.1933 11.4571C11.9724 11.4571 11.5307 11.4479 10.9969 11.3007L10.9141 11.2823L10.8497 11.3375C10.5092 11.6136 10.1411 11.862 9.76381 12.0737C9.3773 11.8528 9.00921 11.6044 8.66872 11.3283L8.6043 11.2731L8.52148 11.2915C7.97853 11.4295 7.53681 11.4479 7.31595 11.4387C7.30675 11.2179 7.32516 10.7761 7.46319 10.2332L7.4816 10.1504L7.40798 10.0952ZM13.2055 5.66878L13.1871 5.55835L13.0767 5.53995C13.0399 5.53074 12.2393 5.3835 11.1534 5.53995C11.089 5.49393 11.0153 5.43872 10.9417 5.39271C12.3037 4.89577 13.454 4.89578 13.8497 4.90498C13.8681 5.30068 13.8589 6.46019 13.362 7.81295C13.316 7.73933 13.2607 7.66572 13.2055 7.5921C13.362 6.50621 13.2147 5.70559 13.2055 5.66878ZM9.727 4.69332C9.41411 4.54608 9.11043 4.41725 8.80675 4.31602C9.19325 3.76387 9.56135 3.40498 9.7362 3.23933C9.91105 3.40498 10.2699 3.76387 10.6564 4.31602C10.3528 4.41725 10.0491 4.54608 9.727 4.69332ZM9.7362 2.17185C10.0031 2.38351 10.7301 3.03688 11.4295 4.07676C11.2914 4.11357 11.1442 4.15038 10.9969 4.19639C10.408 3.34056 9.86503 2.88964 9.84663 2.87123L9.7362 2.77921L9.62577 2.87123C9.59816 2.88964 9.05522 3.34056 8.46626 4.19639C8.31902 4.15038 8.17178 4.11357 8.03375 4.07676C8.74234 3.03688 9.47853 2.39271 9.7362 2.17185ZM4.8773 4.15038C5.40184 4.09516 7.4724 3.97553 9.65338 5.03381C9.93865 5.17185 10.2147 5.31909 10.4724 5.48473C10.6564 5.59516 10.8405 5.724 10.9969 5.84363L11.0522 5.88964L11.1166 5.88044C11.9356 5.7516 12.6166 5.81602 12.8742 5.85283C12.911 6.1105 12.9755 6.78228 12.8466 7.6105L12.8374 7.68412L12.8834 7.73933C12.9939 7.88657 13.0951 8.05222 13.1963 8.20866C13.1319 8.3651 13.0675 8.51234 12.9847 8.65958C12.8006 8.3559 12.5982 8.05222 12.3773 7.77614C12.5614 6.98473 12.5153 6.41418 12.5153 6.39578L12.5061 6.25774L12.3589 6.23933C12.3313 6.23933 11.7699 6.18412 10.9785 6.37737C10.6104 6.09209 10.2239 5.82522 9.81902 5.60436C9.54295 5.45713 9.25767 5.31909 8.96319 5.19946C7.06749 4.41725 5.50307 4.57369 5.43865 4.58289L5.30062 4.59209L5.28221 4.73013C5.27301 4.79455 5.12577 6.31295 5.87117 8.17185C5.77915 8.32829 5.68712 8.47553 5.6043 8.63197C5.08896 7.43565 4.90491 6.31295 4.8589 5.54915C4.82209 4.87737 4.8589 4.37123 4.8773 4.15038ZM6.24847 7.5921C6.20246 7.65651 6.15645 7.73013 6.11043 7.79455C5.6135 6.43258 5.6135 5.27307 5.6227 4.88657C6.01841 4.86817 7.16872 4.87737 8.53068 5.3743C8.45706 5.42032 8.38344 5.47553 8.31902 5.52154C7.23313 5.3651 6.42332 5.52154 6.38651 5.53074L6.27608 5.54915L6.24847 5.65958C6.24847 5.70559 6.09203 6.50621 6.24847 7.5921ZM5.04295 9.92952C4.4908 9.54302 4.1227 9.18412 3.96626 9.00927C4.13191 8.83443 4.4908 8.47553 5.04295 8.08903C5.14418 8.39271 5.27301 8.69639 5.42025 9.00927C5.27301 9.32216 5.14418 9.63504 5.04295 9.92952ZM2.89878 9.00927C3.11043 8.7424 3.76381 8.01541 4.80368 7.31602C4.84049 7.45406 4.8773 7.6013 4.92332 7.74854C4.06749 8.33749 3.61657 8.88044 3.59816 8.89884L3.50614 9.00927L3.59816 9.1197C3.61657 9.14731 4.06749 9.68105 4.93252 10.2792C4.88651 10.4264 4.8497 10.5737 4.81289 10.7117C3.77301 10.0123 3.11964 9.27614 2.89878 9.00927ZM6.25767 13.8682C5.5951 13.9142 5.09816 13.8866 4.8773 13.859C4.8589 13.6381 4.82209 13.1412 4.8681 12.4786C4.92332 11.6504 5.12577 10.3896 5.75154 9.08289C5.88957 8.80682 6.03681 8.52154 6.20246 8.26387C6.31289 8.07982 6.43252 7.90498 6.55215 7.73933L6.59816 7.68412L6.58896 7.6105C6.46013 6.78228 6.53375 6.1105 6.57056 5.84363C6.82822 5.80682 7.5 5.7424 8.32822 5.86203L8.39264 5.87124L8.44786 5.83443C8.5951 5.724 8.75154 5.62277 8.90798 5.52154C9.06442 5.58596 9.22086 5.65958 9.3773 5.7332C9.06442 5.91725 8.76074 6.12891 8.47546 6.34976C7.68405 6.16571 7.1135 6.22093 7.08589 6.22093L6.94786 6.23933L6.92945 6.37737C6.92945 6.40498 6.87424 6.97553 7.05829 7.76694C6.77301 8.12584 6.51534 8.51234 6.29448 8.91725C6.13804 9.19332 6 9.4786 5.88037 9.77308C5.10737 11.6688 5.2454 13.2332 5.25461 13.2976L5.27301 13.4357L5.41105 13.4449C5.42945 13.4449 5.56749 13.4633 5.79755 13.4633C6.3773 13.4633 7.53681 13.3804 8.86197 12.8559C9.00921 12.9479 9.15645 13.0307 9.30368 13.1044C8.15338 13.6381 7.02148 13.813 6.25767 13.8682ZM6.11043 10.2148C6.15645 10.2792 6.20246 10.3528 6.24847 10.4172C6.09203 11.5031 6.24847 12.313 6.25767 12.3498L6.28528 12.4602L6.39571 12.4786C6.43252 12.4878 7.24233 12.6442 8.32822 12.4878C8.40184 12.5338 8.46626 12.589 8.53988 12.635C7.17792 13.132 6.00921 13.1412 5.6135 13.132C5.6043 12.7363 5.6135 11.5768 6.11043 10.2148ZM9.727 13.316C10.0399 13.4633 10.3528 13.5921 10.6564 13.6933C10.2699 14.2455 9.91105 14.6136 9.7362 14.7792C9.56135 14.6136 9.20246 14.2455 8.80675 13.6841C9.11043 13.5921 9.42332 13.4633 9.727 13.316ZM9.7362 15.8467C9.46933 15.6258 8.73313 14.9725 8.04295 13.9234C8.18099 13.8866 8.32822 13.8498 8.47546 13.8038C9.06442 14.6688 9.60737 15.1289 9.63497 15.1473L9.7454 15.2393L9.85583 15.1473C9.88344 15.1289 10.4172 14.6688 11.0061 13.8038C11.1534 13.8498 11.2914 13.8866 11.4387 13.9234C10.7393 14.9633 10.0031 15.6258 9.7362 15.8467ZM14.5859 13.859C14.3558 13.8774 13.8681 13.9142 13.2055 13.8682C12.3773 13.813 11.1074 13.6105 9.80982 12.9755C9.53375 12.8467 9.25767 12.6903 9 12.5338C8.81596 12.4234 8.64111 12.2945 8.46626 12.1749L8.41105 12.1289L8.33743 12.1381C7.50921 12.2669 6.83743 12.1933 6.57056 12.1565C6.53375 11.8988 6.46013 11.2179 6.58896 10.3896L6.59816 10.316L6.55215 10.2608C6.45092 10.1136 6.3497 9.96633 6.24847 9.80989C6.31289 9.65344 6.38651 9.497 6.46013 9.34056C6.64418 9.65345 6.84663 9.94792 7.07669 10.224C6.89264 11.0154 6.94786 11.586 6.94786 11.6136L6.96626 11.7516L7.1043 11.77C7.13191 11.77 7.70246 11.8252 8.49387 11.632C8.86197 11.9172 9.24847 12.1841 9.65338 12.405C9.92025 12.5522 10.2055 12.6903 10.4908 12.8007C11.8528 13.362 13.0399 13.4449 13.6288 13.4449C13.8681 13.4449 14.0061 13.4357 14.0245 13.4265L14.1626 13.408L14.181 13.27C14.1902 13.2056 14.3282 11.678 13.5828 9.81909C13.6749 9.67185 13.7577 9.52461 13.8405 9.37737C14.3558 10.5645 14.5307 11.6964 14.5859 12.451C14.6411 13.1412 14.6043 13.6381 14.5859 13.859ZM14.6503 10.7025C14.6135 10.5645 14.5767 10.4172 14.5307 10.2792C15.3957 9.69025 15.8558 9.14731 15.8742 9.1197L15.9663 9.00927L15.8742 8.89884C15.8558 8.87123 15.3957 8.33749 14.5307 7.74854C14.5767 7.6013 14.6135 7.46326 14.6503 7.31602C15.6902 8.00621 16.3528 8.7424 16.5736 9.00927C16.3528 9.27614 15.6994 10.0123 14.6503 10.7025Z" fill="#BA9653"/>
<path d="M21.0644 13.5365H20.1718V14.2359H20.9356V14.4384H20.1534C20.1534 14.4384 20.1718 14.5028 20.1718 14.558V15.4046H19.9509V13.3433H21.1196L21.0644 13.5365Z" fill="#501C4B"/>
<path d="M21.7823 15.4236C21.5522 15.4236 21.4418 15.304 21.4418 15.0555V13.1782H21.6626V15.0555C21.6626 15.1844 21.6994 15.2304 21.7915 15.2304H21.9019V15.4328H21.7823V15.4236Z" fill="#501C4B"/>
<path d="M22.6656 15.8006C22.5828 16.0123 22.4632 16.0859 22.2055 16.0859H22.0031V15.8834H22.2055C22.3804 15.8834 22.4172 15.8466 22.4724 15.6994L22.5736 15.4325L21.9847 13.8589H22.2147L22.638 14.9908C22.6564 15.0368 22.6748 15.1196 22.6841 15.184C22.7025 15.1104 22.7209 15.0368 22.7393 14.9908L23.1626 13.8589H23.3926L22.6656 15.8006Z" fill="#501C4B"/>
<path d="M24.9018 15.4414C24.6718 15.4414 24.4969 15.3586 24.4969 15.0181V14.1714C24.4969 14.1162 24.5153 14.0886 24.5245 14.061H24.2393V13.8678H24.5061V13.3432L24.727 13.2788V13.8678H25.2791L25.2147 14.061H24.727V15.0273C24.727 15.2113 24.8098 15.2665 24.9755 15.2665C25.0491 15.2665 25.1319 15.2389 25.2239 15.1837L25.362 15.331C25.2423 15.4138 25.0583 15.4414 24.9018 15.4414Z" fill="#501C4B"/>
<path d="M26.6503 15.4052V14.4206C26.6503 14.0893 26.5122 14.0064 26.3282 14.0064C26.1994 14.0064 26.1073 14.0433 25.9693 14.1445L25.8221 14.2457V15.4052H25.6012V13.1782H25.8221V13.9696L25.8036 14.0709L25.9417 13.9696C26.0889 13.8684 26.2086 13.8132 26.3374 13.8132C26.6503 13.8132 26.8803 13.9788 26.8803 14.4022V15.396H26.6503V15.4052Z" fill="#501C4B"/>
<path d="M27.4233 14.696C27.4325 15.0733 27.5429 15.2574 27.9018 15.2574C28.1227 15.2574 28.2607 15.1837 28.3344 15.0365L28.5276 15.1101C28.4264 15.3218 28.2515 15.4414 27.9018 15.4414C27.4141 15.4414 27.1933 15.1929 27.1933 14.6316C27.1933 14.1163 27.3681 13.8218 27.911 13.8218C28.4816 13.8218 28.5552 14.1991 28.5552 14.6316V14.696H27.4233ZM27.911 14.0058C27.6074 14.0058 27.4509 14.1255 27.4325 14.512H28.3252C28.3252 14.1991 28.2515 14.0058 27.911 14.0058Z" fill="#501C4B"/>
<path d="M30.6534 15.4046V14.4199C30.6534 14.0886 30.5153 14.0058 30.3313 14.0058C30.2025 14.0058 30.1196 14.0426 29.9724 14.1439L29.8252 14.2451V15.4046H29.6043V13.8678H29.7791L29.8252 14.0518L29.9356 13.9782C30.0828 13.877 30.2025 13.8218 30.3313 13.8218C30.6442 13.8218 30.8742 13.9874 30.8742 14.4107V15.4046H30.6534Z" fill="#501C4B"/>
<path d="M31.4356 14.696C31.4448 15.0733 31.5552 15.2574 31.9141 15.2574C32.135 15.2574 32.273 15.1837 32.3466 15.0365L32.5399 15.1101C32.4386 15.3218 32.2546 15.4414 31.9141 15.4414C31.4264 15.4414 31.2055 15.1929 31.2055 14.6316C31.2055 14.1163 31.3804 13.8218 31.9233 13.8218C32.4939 13.8218 32.5767 14.1991 32.5767 14.6316V14.696H31.4356ZM31.9141 14.0058C31.6196 14.0058 31.454 14.1255 31.4356 14.512H32.3282C32.3282 14.1991 32.2546 14.0058 31.9141 14.0058Z" fill="#501C4B"/>
<path d="M34.362 15.4045H34.1411L33.8283 14.383C33.8007 14.2818 33.7731 14.0977 33.7731 14.0977C33.7731 14.0977 33.7546 14.291 33.727 14.383L33.405 15.4045H33.1841L32.7056 13.8677H32.9264L33.2393 14.9168C33.2669 14.9996 33.2945 15.202 33.2945 15.202C33.2945 15.202 33.3221 15.0088 33.3497 14.9168L33.6718 13.8677H33.8835L34.2056 14.9168C34.2332 15.0088 34.2516 15.202 34.2516 15.202C34.2516 15.202 34.2884 14.9996 34.3068 14.9168L34.6289 13.8677H34.8497L34.362 15.4045Z" fill="#501C4B"/>
<path d="M36.7822 13.4077C36.727 13.3985 36.681 13.3893 36.6442 13.3801C36.5982 13.3709 36.5521 13.3617 36.4785 13.3617C36.3129 13.3617 36.1656 13.4445 36.1656 13.693V13.8586H36.6902L36.6442 14.0519H36.1656V15.3955H35.9448V14.1807C35.9448 14.1347 35.954 14.0979 35.9724 14.0519H35.7055V13.8586H35.9448V13.693C35.9448 13.3433 36.1656 13.1685 36.4785 13.1685C36.6258 13.1685 36.6902 13.1869 36.8282 13.2053L36.7822 13.4077Z" fill="#501C4B"/>
<path d="M37.0583 14.696C37.0675 15.0733 37.1779 15.2574 37.5368 15.2574C37.7577 15.2574 37.8957 15.1837 37.9693 15.0365L38.1626 15.1101C38.0613 15.3218 37.8773 15.4414 37.5368 15.4414C37.0491 15.4414 36.819 15.1929 36.819 14.6316C36.819 14.1163 36.9939 13.8218 37.5368 13.8218C38.1074 13.8218 38.1902 14.1991 38.1902 14.6316V14.696H37.0583ZM37.546 14.0058C37.2423 14.0058 37.0859 14.1255 37.0675 14.512H37.9601C37.9601 14.1991 37.8865 14.0058 37.546 14.0058Z" fill="#501C4B"/>
<path d="M38.7055 14.696C38.7147 15.0733 38.8251 15.2574 39.184 15.2574C39.4049 15.2574 39.5429 15.1837 39.6166 15.0365L39.8098 15.1101C39.7086 15.3218 39.5337 15.4414 39.184 15.4414C38.6871 15.4414 38.4662 15.1929 38.4662 14.6316C38.4662 14.1163 38.6411 13.8218 39.184 13.8218C39.7546 13.8218 39.8374 14.1991 39.8374 14.6316V14.696H38.7055ZM39.184 14.0058C38.8804 14.0058 38.7239 14.1255 38.7055 14.512H39.6074C39.5981 14.1991 39.5245 14.0058 39.184 14.0058Z" fill="#501C4B"/>
<path d="M40.5092 15.4236C40.2883 15.4236 40.1687 15.304 40.1687 15.0555V13.1782H40.3896V15.0555C40.3896 15.1844 40.4264 15.2304 40.5184 15.2304H40.6288V15.4328H40.5092V15.4236Z" fill="#501C4B"/>
<path d="M41.1074 13.4445H40.8773L40.8589 13.4169V13.1961L40.8773 13.1685H41.1074L41.1258 13.1961V13.4169L41.1074 13.4445ZM40.8773 13.8678H41.0982V15.4047H40.8773V13.8678Z" fill="#501C4B"/>
<path d="M42.5521 15.4046V14.4199C42.5521 14.0886 42.4141 14.0058 42.2301 14.0058C42.1012 14.0058 42.0092 14.0426 41.8712 14.1439L41.7239 14.2451V15.4046H41.5031V13.8678H41.6779L41.7239 14.0518L41.8344 13.9782C41.9816 13.877 42.1012 13.8218 42.2301 13.8218C42.5429 13.8218 42.773 13.9874 42.773 14.4107V15.4046H42.5521Z" fill="#501C4B"/>
<path d="M44.5399 14.0338H44.4295C44.4018 14.0338 44.3466 14.0338 44.2914 14.0154C44.3834 14.1167 44.4203 14.2547 44.4203 14.3559C44.4203 14.7148 44.2178 14.8805 43.7945 14.8805C43.7209 14.8805 43.6841 14.8713 43.6196 14.8621L43.5092 14.8437C43.4172 14.8437 43.3804 14.8989 43.3804 14.9633C43.3804 15.0185 43.4172 15.0553 43.4908 15.0645L44.1258 15.175C44.4571 15.2302 44.5307 15.405 44.5307 15.5983C44.5307 15.9664 44.2086 16.0768 43.7945 16.0768C43.454 16.0768 43.0583 16.0124 43.0583 15.5615C43.0583 15.3774 43.1503 15.2486 43.2791 15.1565C43.2239 15.1105 43.1871 15.0553 43.1871 14.9541C43.1871 14.8529 43.2423 14.7884 43.3436 14.7332C43.2239 14.6228 43.1779 14.5032 43.1779 14.3467C43.1779 13.9602 43.4724 13.813 43.8037 13.813C43.9601 13.813 44.089 13.8314 44.2086 13.905L44.4479 13.813H44.6043L44.5399 14.0338ZM44.0798 15.3682L43.4264 15.2486C43.3252 15.313 43.2791 15.4326 43.2791 15.5707C43.2791 15.8283 43.454 15.9111 43.7853 15.9111C44.1626 15.9111 44.2914 15.7915 44.2914 15.6075C44.2822 15.4694 44.227 15.3958 44.0798 15.3682ZM43.7761 13.997C43.5276 13.997 43.3712 14.0983 43.3712 14.3559C43.3712 14.632 43.546 14.6964 43.7761 14.6964C44.0245 14.6964 44.181 14.6228 44.181 14.3559C44.181 14.1259 44.043 13.997 43.7761 13.997Z" fill="#501C4B"/>
<path d="M18.8742 6.69914H19.7761C19.8865 6.69914 19.9233 6.77276 19.9325 6.79117C20.411 7.68381 22.0399 10.5826 22.0399 10.5826C22.0399 10.5826 23.6963 7.6746 24.184 6.78197C24.2025 6.75436 24.2301 6.68994 24.3313 6.68994H24.7914C24.865 6.68994 24.9018 6.77276 24.865 6.82798C24.3037 7.81264 22.7485 10.5182 22.4172 11.1071C22.3804 11.1807 22.3344 11.2176 22.2515 11.2176H21.3957C21.3129 11.2176 21.2577 11.1623 21.2209 11.0979C20.8896 10.5182 19.3436 7.82184 18.7822 6.84638C18.7822 6.80957 18.7454 6.69914 18.8742 6.69914Z" fill="#501C4B"/>
<path d="M32.4847 7.48113C32.2454 7.3523 31.5276 6.975 30.4326 6.975C29.2454 6.975 29.0154 7.48113 29.0154 7.84003C29.0154 8.29095 29.4847 8.41978 30.0276 8.45659C30.3589 8.4842 31.1964 8.52101 31.6473 8.60383C32.724 8.79708 33.0092 9.40445 33.0092 9.89218C33.0092 10.9136 31.8221 11.3462 30.3865 11.3462C29.1718 11.3462 28.2976 10.9597 27.9479 10.7664C27.8835 10.7296 27.8835 10.6468 27.9111 10.5916C28.0031 10.4259 27.9755 10.4811 28.0491 10.3431C28.0859 10.2695 28.1503 10.2603 28.2148 10.2971C28.5 10.4811 29.4111 10.9228 30.3957 10.9228C31.408 10.9228 31.951 10.4811 31.951 10.0394C31.951 9.67131 31.8129 9.44126 31.0491 9.33083C30.6442 9.27561 29.7424 9.27561 29.2822 9.16518C28.8221 9.06395 28.0215 8.8431 28.0215 7.95046C28.0215 7.45353 28.4172 6.54248 30.4878 6.54248C31.6197 6.54248 32.3743 6.84616 32.7516 7.03942C32.816 7.07623 32.8344 7.13144 32.7976 7.19586C32.7332 7.29708 32.7148 7.3431 32.6503 7.44432C32.6043 7.49954 32.5399 7.50874 32.4847 7.48113Z" fill="#501C4B"/>
<path d="M26.6595 6.69971H25.9233C25.8497 6.69971 25.7853 6.76412 25.7853 6.83774V11.0709C25.7853 11.1537 25.8497 11.2273 25.9233 11.2273H26.6595C26.7331 11.2273 26.7975 11.1537 26.7975 11.0709V6.83774C26.7975 6.76412 26.7331 6.69971 26.6595 6.69971Z" fill="#501C4B"/>
<path d="M37.3712 10.9878C37.3067 10.8037 37.3344 10.8774 37.2791 10.7117C37.2515 10.6197 37.1687 10.6381 37.1319 10.6473C36.8374 10.7669 36.4325 10.8682 36.1472 10.8682C35.4202 10.8682 34.9969 10.5553 34.9969 9.9019V7.27H37.0399C37.1227 7.27 37.1963 7.20558 37.1963 7.13196V6.9203C37.1963 6.83748 37.1227 6.78227 37.0399 6.78227H34.9969V5.68718C34.9969 5.58595 34.9049 5.54914 34.8405 5.57674C34.6656 5.63196 34.3344 5.74239 34.1503 5.79761C34.0859 5.81601 34.0215 5.87122 34.0215 5.97245V9.66264C34.0215 10.5829 34.5552 11.3283 36 11.3283C36.5061 11.3283 36.9847 11.2179 37.2883 11.1258C37.3344 11.1166 37.408 11.0798 37.3712 10.9878Z" fill="#501C4B"/>
<path d="M49.5736 11.0151C49.0583 10.6194 47.8988 9.74516 47.7607 9.63473C48.5797 9.63473 49.546 9.1654 49.546 8.13473C49.546 7.00283 48.4417 6.68994 47.9264 6.68994H44.5859C44.5123 6.68994 44.4478 6.75436 44.4478 6.84638V11.0611C44.4478 11.1439 44.5123 11.2176 44.5859 11.2176H45.2945C45.3681 11.2176 45.4325 11.1439 45.4325 11.0611V9.67154H46.5276C46.5276 9.67154 47.7791 10.6838 48.2117 11.0427C48.2485 11.0795 48.4049 11.2083 48.5705 11.2083H49.546C49.6196 11.2268 49.6932 11.1071 49.5736 11.0151ZM45.4417 9.24823V7.15006H47.5307C48.1932 7.15006 48.4877 7.68381 48.4877 8.15313C48.4877 8.67767 48.2301 9.24823 47.3834 9.24823H45.4417Z" fill="#501C4B"/>
<path d="M43.2699 8.55786V8.52104C43.2699 8.23577 43.1963 7.58239 42.6441 7.13147C42.4509 6.97503 41.8619 6.60693 40.7208 6.60693C39.773 6.60693 39.0552 6.8462 38.3558 7.2143C38.2914 7.2419 38.273 7.30632 38.3006 7.36154C38.3834 7.54559 38.365 7.52718 38.4202 7.63761C38.4478 7.70203 38.503 7.72043 38.5766 7.67442C38.9263 7.47196 39.7178 7.05785 40.6104 7.05785C41.6963 7.05785 42.2852 7.55479 42.2852 8.23577V8.76031C41.8987 8.65908 41.1809 8.50264 40.4539 8.50264C38.6043 8.50264 37.9601 9.17442 37.9601 9.94742C37.9601 11.0701 39.0736 11.3462 40.0582 11.3462C40.9049 11.3462 41.6687 11.1529 42.2668 10.702H42.2852C42.2852 10.9137 42.2852 11.0793 42.2852 11.0793C42.2852 11.1621 42.3497 11.2358 42.4233 11.2358H43.1227C43.2055 11.2358 43.2607 11.1621 43.2607 11.0793L43.2699 8.55786ZM40.2515 10.8861C39.2576 10.8861 39 10.3799 39 9.89221C39 9.07319 39.9846 8.91675 40.6012 8.91675C41.3006 8.91675 41.9079 9.04558 42.2852 9.13761V10.2603C41.8895 10.5272 41.273 10.8861 40.2515 10.8861Z" fill="#501C4B"/>
<path d="M55.6657 8.55786V8.52104C55.6657 8.23577 55.6012 7.58239 55.0399 7.13147C54.8466 6.97503 54.2669 6.60693 53.1258 6.60693C52.1779 6.60693 51.4601 6.8462 50.7607 7.2143C50.6963 7.2419 50.6871 7.30632 50.7055 7.36154C50.7883 7.54559 50.7699 7.52718 50.8252 7.63761C50.8528 7.70203 50.908 7.72043 50.9816 7.67442C51.3313 7.47196 52.1227 7.05785 53.0061 7.05785C54.092 7.05785 54.681 7.55479 54.681 8.23577V8.76031C54.2945 8.65908 53.5767 8.50264 52.8589 8.50264C51 8.50264 50.3558 9.17442 50.3558 9.94742C50.3558 11.0701 51.4693 11.3462 52.4632 11.3462C53.3098 11.3462 54.0644 11.1529 54.6718 10.702H54.6902C54.6902 10.9137 54.6902 11.0793 54.6902 11.0793C54.6902 11.1621 54.7546 11.2358 54.8374 11.2358H55.5368C55.6104 11.2358 55.6749 11.1621 55.6749 11.0793V8.55786H55.6657ZM52.6472 10.8861C51.6534 10.8861 51.3957 10.3799 51.3957 9.89221C51.3957 9.07319 52.3804 8.91675 52.9969 8.91675C53.6963 8.91675 54.2945 9.04558 54.681 9.13761V10.2603C54.2761 10.5272 53.6595 10.8861 52.6472 10.8861Z" fill="#501C4B"/>
<path d="M45.3221 5.37368L45.2117 5.0608H44.7791L44.6687 5.37368H44.4294L44.8804 4.13135H45.1196L45.5705 5.37368H45.3221ZM45.0184 4.49945L45 4.39822L44.9724 4.49945L44.8436 4.86754H45.1472L45.0184 4.49945Z" fill="#501C4B"/>
<path d="M46.4815 4.3246V5.37368H46.2515V4.3246H45.8926V4.13135H46.8312V4.3246H46.4815Z" fill="#501C4B"/>
<path d="M47.6871 5.37368L47.5766 5.0608H47.1441L47.0337 5.37368H46.7944L47.2454 4.13135H47.4846L47.9355 5.37368H47.6871ZM47.3926 4.49945L47.365 4.39822L47.3374 4.49945L47.2085 4.86754H47.5122L47.3926 4.49945Z" fill="#501C4B"/>
<path d="M48.4878 4.3246V5.37368H48.2577V4.3246H47.8988V4.13135H48.8467V4.3246H48.4878Z" fill="#501C4B"/>
<path d="M49.7024 5.37368L49.592 5.0608H49.1595L49.0491 5.37368H48.8098L49.2607 4.13135H49.5L49.9509 5.37368H49.7024ZM49.408 4.49945L49.3804 4.39822L49.3528 4.49945L49.2239 4.86754H49.5276L49.408 4.49945Z" fill="#501C4B"/>
<path d="M50.8988 5.40196C50.6411 5.40196 50.5215 5.28233 50.4386 5.1535L50.6319 5.05227C50.6871 5.13509 50.7699 5.19951 50.8988 5.19951C51.092 5.19951 51.1472 5.11669 51.1472 5.00626C51.1472 4.92344 51.1104 4.86822 51 4.84981L50.7423 4.8038C50.5675 4.77619 50.4479 4.68417 50.4479 4.45411C50.4479 4.27926 50.5675 4.09521 50.8988 4.09521C51.1564 4.09521 51.2669 4.18724 51.3497 4.31607L51.1564 4.4173C51.1012 4.33448 51.0276 4.29767 50.8988 4.29767C50.7331 4.29767 50.6779 4.36209 50.6779 4.45411C50.6779 4.54613 50.7055 4.57374 50.7975 4.58294L51.046 4.61975C51.2301 4.64736 51.3865 4.74859 51.3865 4.99705C51.3773 5.23632 51.2393 5.40196 50.8988 5.40196Z" fill="#501C4B"/>
<path d="M51.8006 4.13135H51.5706V5.37368H51.8006V4.13135Z" fill="#501C4B"/>
<path d="M52.9326 5.37368L52.8221 5.0608H52.3896L52.2792 5.37368H52.0399L52.4908 4.13135H52.7301L53.181 5.37368H52.9326ZM52.6289 4.49945L52.6013 4.39822L52.5737 4.49945L52.4448 4.86754H52.7485L52.6289 4.49945Z" fill="#501C4B"/>
<path d="M53.954 5.40185C53.862 5.40185 53.7515 5.38344 53.6595 5.30062L53.7607 5.15338C53.8252 5.2178 53.8896 5.2178 53.9448 5.2178C54.046 5.2178 54.0828 5.16259 54.0828 5.01535V4.14111H54.3129V5.01535C54.3129 5.29142 54.1749 5.40185 53.954 5.40185Z" fill="#501C4B"/>
<path d="M55.2331 5.37368H55.003L54.5521 4.13135H54.8006L55.0951 5.00558L55.1227 5.10681L55.1411 5.00558L55.4448 4.13135H55.684L55.2331 5.37368Z" fill="#501C4B"/>
<path d="M57.092 6.62549C57.1933 6.62549 57.2853 6.65309 57.3865 6.69911C57.4785 6.74512 57.5521 6.81874 57.6074 6.91997C57.6626 7.01199 57.6902 7.11322 57.6902 7.21444C57.6902 7.31567 57.6626 7.4169 57.6166 7.50892C57.5613 7.60095 57.4877 7.67457 57.3957 7.72978C57.3037 7.785 57.2025 7.8126 57.1012 7.8126C57 7.8126 56.8988 7.785 56.8067 7.72978C56.7147 7.67457 56.6411 7.60095 56.5859 7.50892C56.5307 7.4169 56.5031 7.31567 56.5031 7.21444C56.5031 7.11322 56.5307 7.01199 56.5859 6.91997C56.6411 6.82794 56.7147 6.75432 56.8067 6.69911C56.8988 6.65309 56.9908 6.62549 57.092 6.62549ZM57.092 6.72671C57.0092 6.72671 56.9264 6.74512 56.8528 6.79113C56.7699 6.83714 56.7147 6.89236 56.6687 6.97518C56.6227 7.058 56.6043 7.14083 56.6043 7.22365C56.6043 7.30647 56.6227 7.38929 56.6687 7.47211C56.7147 7.55493 56.7699 7.61015 56.8528 7.65616C56.9264 7.70217 57.0092 7.72058 57.1012 7.72058C57.184 7.72058 57.2669 7.70217 57.3497 7.65616C57.4233 7.61015 57.4877 7.55493 57.5337 7.47211C57.5798 7.39849 57.5982 7.31567 57.5982 7.22365C57.5982 7.14083 57.5798 7.058 57.5337 6.97518C57.4877 6.89236 57.4233 6.83714 57.3497 6.79113C57.2577 6.74512 57.1748 6.72671 57.092 6.72671ZM56.8344 7.54573V6.91076H57.0552C57.1288 6.91076 57.184 6.91997 57.2209 6.92917L57.3037 6.99359L57.3313 7.08561C57.3313 7.13162 57.3129 7.16843 57.2853 7.20524C57.2485 7.24205 57.2117 7.26046 57.1564 7.26046L57.2117 7.29727C57.2393 7.32487 57.2669 7.36168 57.3037 7.4261L57.3773 7.55493H57.2393L57.1841 7.45371C57.138 7.37089 57.1012 7.32487 57.0736 7.30647L56.9908 7.28806H56.9264V7.56414H56.8344V7.54573ZM56.9356 7.18684H57.0644C57.1196 7.18684 57.1656 7.17763 57.1841 7.15923L57.2117 7.08561L57.1933 7.0304L57.1472 6.99359C57.1288 6.98438 57.092 6.98438 57.046 6.98438H56.9264L56.9356 7.18684Z" fill="#501C4B"/>
</svg>
